<?xml version="1.0" encoding="utf-8" ?>	<!-- Generator: Assembly 2.2 - http://assemblyapp.co -->	<svg version="1.1" xmlns="http://www.w3.org/2000/svg" xmlns:xlink="http://www.w3.org/1999/xlink" width="2048.00" height="2048.00" viewBox="0 0 2048.0 2048.0">		<rect x="0" y="0" width="2048.00" height="2048.00" fill="#ffffff" />		<g id="document" transform="matrix(1,0,0,1,1024.0,1024.0)">			<g>				<g>					<path d="M-801.086,418.91 C-801.086,494.477 -736.7,561.754 -661.134,561.754 C-585.567,561.754 -552.667,533.995 -552.667,458.428 C-552.667,382.861 -585.567,299.519 -661.134,299.519 C-736.7,299.519 -801.086,343.343 -801.086,418.91 Z " fill="#6f6d82" fill-opacity="0.43" />					<path d="M-730.416,376.615 C-758.939,405.138 -758.939,451.317 -730.416,479.839 C-701.894,508.361 -662.576,503.73 -634.054,475.208 C-605.531,446.685 -598.67,405.138 -627.192,376.615 C-655.715,348.093 -701.894,348.093 -730.416,376.615 Z " fill="#d97f7f" fill-opacity="1.00" />				</g>				<g>					<path d="M-597.003,305.412 L-597.003,307.539 L-575.781,307.539 L-575.781,305.412 L-597.003,305.412 Z " fill="#09476b" fill-opacity="1.00" />					<path d="M-596.984,305.393 L-597.015,307.527 L-592.73,307.526 L-592.73,305.393 L-596.984,305.393 Z " fill="#ff7503" fill-opacity="1.00" />					<path d="M-592.729,305.399 L-592.729,307.55 L-590.386,307.546 L-590.386,305.399 L-592.729,305.399 Z " fill="#fdf4af" fill-opacity="1.00" />					<path d="M-599.013,303.402 L-601.141,303.402 L-601.141,282.179 L-599.013,282.179 L-599.013,303.402 Z " fill="#09476b" fill-opacity="1.00" />					<path d="M-598.994,303.383 L-601.129,303.414 L-601.127,299.128 L-598.994,299.128 L-598.994,303.383 Z " fill="#ff7503" fill-opacity="1.00" />					<path d="M-599.001,299.127 L-601.151,299.127 L-601.148,296.784 L-599.001,296.784 L-599.001,299.127 Z " fill="#fdf4af" fill-opacity="1.00" />					<path d="M-617.576,325.869 L-616.394,327.051 L-596.92,307.577 C-596.92,307.577 -597.014,305.788 -597.038,305.331 C-597.062,304.874 -617.576,325.869 -617.576,325.869 Z " fill="#98a093" fill-opacity="1.00" />					<path d="M-619.457,323.767 L-620.639,322.585 L-601.165,303.112 C-601.165,303.112 -599.376,303.206 -598.919,303.23 C-598.461,303.254 -619.457,323.767 -619.457,323.767 Z " fill="#98a093" fill-opacity="1.00" />					<path d="M-596.993,309.041 L-596.993,311.168 L-575.77,311.168 L-575.77,309.041 L-596.993,309.041 Z " fill="#98a093" fill-opacity="1.00" />					<path d="M-602.965,303.069 L-605.092,303.069 L-605.092,281.846 L-602.965,281.846 L-602.965,303.069 Z " fill="#98a093" fill-opacity="1.00" />				</g>				<g>					<path d="M-548.286,399.127 L-549.293,400.869 L-531.907,410.907 L-530.901,409.164 L-548.286,399.127 Z " fill="#09476b" fill-opacity="1.00" />					<path d="M-548.262,399.12 L-549.297,400.854 L-545.785,402.88 L-544.777,401.132 L-548.262,399.12 Z " fill="#ff7503" fill-opacity="1.00" />					<path d="M-544.779,401.138 L-545.796,402.9 L-543.875,404.005 L-542.86,402.246 L-544.779,401.138 Z " fill="#fdf4af" fill-opacity="1.00" />					<path d="M-548.982,396.53 L-550.725,395.524 L-540.688,378.138 L-538.945,379.144 L-548.982,396.53 Z " fill="#09476b" fill-opacity="1.00" />					<path d="M-548.958,396.523 L-550.721,395.539 L-548.693,392.029 L-546.946,393.038 L-548.958,396.523 Z " fill="#ff7503" fill-opacity="1.00" />					<path d="M-546.95,393.034 L-548.712,392.017 L-547.601,390.099 L-545.842,391.115 L-546.95,393.034 Z " fill="#fdf4af" fill-opacity="1.00" />					<path d="M-574.814,406.155 L-574.405,407.682 L-549.242,400.94 C-549.242,400.94 -548.473,399.43 -548.277,399.044 C-548.08,398.658 -574.814,406.155 -574.814,406.155 Z " fill="#98a093" fill-opacity="1.00" />					<path d="M-575.361,403.544 L-575.77,402.017 L-550.608,395.274 C-550.608,395.274 -549.187,396.197 -548.823,396.433 C-548.46,396.669 -575.361,403.544 -575.361,403.544 Z " fill="#98a093" fill-opacity="1.00" />					<path d="M-549.994,402.104 L-551,403.847 L-533.615,413.884 L-532.609,412.142 L-549.994,402.104 Z " fill="#98a093" fill-opacity="1.00" />					<path d="M-552.062,394.388 L-553.804,393.382 L-543.767,375.997 L-542.024,377.003 L-552.062,394.388 Z " fill="#98a093" fill-opacity="1.00" />				</g>				<g>					<path d="M-558.057,519.057 L-559.8,520.063 L-549.763,537.448 L-548.02,536.442 L-558.057,519.057 Z " fill="#09476b" fill-opacity="1.00" />					<path d="M-558.033,519.064 L-559.796,520.048 L-557.768,523.558 L-556.021,522.549 L-558.033,519.064 Z " fill="#ff7503" fill-opacity="1.00" />					<path d="M-556.025,522.553 L-557.787,523.57 L-556.676,525.488 L-554.917,524.472 L-556.025,522.553 Z " fill="#fdf4af" fill-opacity="1.00" />					<path d="M-557.361,516.46 L-558.368,514.718 L-540.982,504.68 L-539.976,506.423 L-557.361,516.46 Z " fill="#09476b" fill-opacity="1.00" />					<path d="M-557.337,516.467 L-558.372,514.733 L-554.86,512.707 L-553.852,514.454 L-557.337,516.467 Z " fill="#ff7503" fill-opacity="1.00" />					<path d="M-553.854,514.449 L-554.871,512.687 L-552.95,511.582 L-551.935,513.341 L-553.854,514.449 Z " fill="#fdf4af" fill-opacity="1.00" />					<path d="M-584.545,511.88 L-584.954,513.408 L-559.792,520.15 C-559.792,520.15 -558.371,519.227 -558.008,518.991 C-557.644,518.755 -584.545,511.88 -584.545,511.88 Z " fill="#98a093" fill-opacity="1.00" />					<path d="M-583.713,509.345 L-583.304,507.818 L-558.141,514.56 C-558.141,514.56 -557.372,516.07 -557.176,516.456 C-556.979,516.842 -583.713,509.345 -583.713,509.345 Z " fill="#98a093" fill-opacity="1.00" />					<path d="M-561.025,520.782 L-562.768,521.788 L-552.73,539.173 L-550.988,538.167 L-561.025,520.782 Z " fill="#98a093" fill-opacity="1.00" />					<path d="M-558.957,513.066 L-559.964,511.323 L-542.578,501.286 L-541.572,503.029 L-558.957,513.066 Z " fill="#98a093" fill-opacity="1.00" />				</g>				<g>					<path d="M-651.116,578.614 L-652.858,577.608 L-662.895,594.993 L-661.153,595.999 L-651.116,578.614 Z " fill="#09476b" fill-opacity="1.00" />					<path d="M-651.109,578.639 L-652.843,577.604 L-654.868,581.115 L-653.121,582.124 L-651.109,578.639 Z " fill="#ff7503" fill-opacity="1.00" />					<path d="M-653.127,582.122 L-654.889,581.105 L-655.994,583.026 L-654.235,584.041 L-653.127,582.122 Z " fill="#fdf4af" fill-opacity="1.00" />					<path d="M-648.519,577.918 L-647.512,576.176 L-630.127,586.213 L-631.133,587.956 L-648.519,577.918 Z " fill="#09476b" fill-opacity="1.00" />					<path d="M-648.512,577.943 L-647.528,576.18 L-644.018,578.208 L-645.027,579.955 L-648.512,577.943 Z " fill="#ff7503" fill-opacity="1.00" />					<path d="M-645.023,579.951 L-644.006,578.189 L-642.088,579.299 L-643.104,581.059 L-645.023,579.951 Z " fill="#fdf4af" fill-opacity="1.00" />					<path d="M-658.144,552.087 L-659.671,552.496 L-652.929,577.658 C-652.929,577.658 -651.419,578.428 -651.033,578.624 C-650.647,578.821 -658.144,552.087 -658.144,552.087 Z " fill="#98a093" fill-opacity="1.00" />					<path d="M-655.533,551.54 L-654.005,551.131 L-647.263,576.293 C-647.263,576.293 -648.186,577.714 -648.422,578.077 C-648.658,578.441 -655.533,551.54 -655.533,551.54 Z " fill="#98a093" fill-opacity="1.00" />					<path d="M-654.093,576.907 L-655.836,575.901 L-665.873,593.286 L-664.131,594.292 L-654.093,576.907 Z " fill="#98a093" fill-opacity="1.00" />					<path d="M-646.377,574.839 L-645.371,573.097 L-627.986,583.134 L-628.992,584.876 L-646.377,574.839 Z " fill="#98a093" fill-opacity="1.00" />				</g>				<g>					<path d="M-761.188,528.84 L-761.188,526.828 L-781.263,526.828 L-781.263,528.84 L-761.188,528.84 Z " fill="#09476b" fill-opacity="1.00" />					<path d="M-761.206,528.858 L-761.177,526.839 L-765.231,526.841 L-765.231,528.858 L-761.206,528.858 Z " fill="#ff7503" fill-opacity="1.00" />					<path d="M-765.231,528.852 L-765.231,526.818 L-767.448,526.821 L-767.448,528.852 L-765.231,528.852 Z " fill="#fdf4af" fill-opacity="1.00" />					<path d="M-759.287,530.741 L-757.275,530.741 L-757.275,550.816 L-759.287,550.816 L-759.287,530.741 Z " fill="#09476b" fill-opacity="1.00" />					<path d="M-759.305,530.759 L-757.286,530.73 L-757.288,534.784 L-759.305,534.784 L-759.305,530.759 Z " fill="#ff7503" fill-opacity="1.00" />					<path d="M-759.299,534.784 L-757.265,534.784 L-757.268,537.001 L-759.299,537.001 L-759.299,534.784 Z " fill="#fdf4af" fill-opacity="1.00" />					<path d="M-741.729,509.49 L-742.847,508.371 L-761.267,526.792 C-761.267,526.792 -761.178,528.484 -761.156,528.916 C-761.133,529.349 -741.729,509.49 -741.729,509.49 Z " fill="#98a093" fill-opacity="1.00" />					<path d="M-739.95,511.477 L-738.832,512.596 L-757.252,531.016 C-757.252,531.016 -758.944,530.927 -759.377,530.904 C-759.809,530.881 -739.95,511.477 -739.95,511.477 Z " fill="#98a093" fill-opacity="1.00" />					<path d="M-761.198,525.407 L-761.198,523.395 L-781.273,523.395 L-781.273,525.407 L-761.198,525.407 Z " fill="#98a093" fill-opacity="1.00" />					<path d="M-755.55,531.056 L-753.538,531.056 L-753.538,551.131 L-755.55,551.131 L-755.55,531.056 Z " fill="#98a093" fill-opacity="1.00" />				</g>				<g>					<path d="M-797.028,353.413 L-795.023,353.255 L-796.6,333.243 L-798.606,333.401 L-797.028,353.413 Z " fill="#09476b" fill-opacity="1.00" />					<path d="M-797.048,353.397 L-795.033,353.267 L-795.353,349.226 L-797.364,349.385 L-797.048,353.397 Z " fill="#ff7503" fill-opacity="1.00" />					<path d="M-797.358,349.384 L-795.33,349.224 L-795.507,347.015 L-797.533,347.174 L-797.358,349.384 Z " fill="#fdf4af" fill-opacity="1.00" />					<path d="M-798.774,355.458 L-798.616,357.464 L-818.629,359.042 L-818.787,357.036 L-798.774,355.458 Z " fill="#09476b" fill-opacity="1.00" />					<path d="M-798.794,355.442 L-798.606,357.452 L-802.647,357.769 L-802.806,355.758 L-798.794,355.442 Z " fill="#ff7503" fill-opacity="1.00" />					<path d="M-802.806,355.764 L-802.646,357.792 L-804.856,357.963 L-805.015,355.938 L-802.806,355.764 Z " fill="#fdf4af" fill-opacity="1.00" />					<path d="M-776.209,371.292 L-775.182,370.089 L-794.993,353.174 C-794.993,353.174 -796.672,353.395 -797.102,353.452 C-797.531,353.509 -776.209,371.292 -776.209,371.292 Z " fill="#98a093" fill-opacity="1.00" />					<path d="M-778.05,373.222 L-779.077,374.424 L-798.888,357.509 C-798.888,357.509 -798.932,355.815 -798.944,355.382 C-798.955,354.949 -778.05,373.222 -778.05,373.222 Z " fill="#98a093" fill-opacity="1.00" />					<path d="M-793.607,353.134 L-791.601,352.976 L-793.179,332.963 L-795.185,333.121 L-793.607,353.134 Z " fill="#98a093" fill-opacity="1.00" />					<path d="M-798.795,359.209 L-798.636,361.215 L-818.649,362.792 L-818.807,360.786 L-798.795,359.209 Z " fill="#98a093" fill-opacity="1.00" />				</g>				<g>					<path d="M-804.424,452.007 L-803.576,450.539 L-818.221,442.084 L-819.068,443.552 L-804.424,452.007 Z " fill="#09476b" fill-opacity="1.00" />					<path d="M-804.444,452.013 L-803.573,450.552 L-806.531,448.846 L-807.38,450.318 L-804.444,452.013 Z " fill="#ff7503" fill-opacity="1.00" />					<path d="M-807.378,450.313 L-806.521,448.829 L-808.14,447.898 L-808.995,449.38 L-807.378,450.313 Z " fill="#fdf4af" fill-opacity="1.00" />					<path d="M-803.838,454.195 L-802.37,455.042 L-810.825,469.687 L-812.292,468.839 L-803.838,454.195 Z " fill="#09476b" fill-opacity="1.00" />					<path d="M-803.858,454.2 L-802.373,455.029 L-804.082,457.986 L-805.553,457.136 L-803.858,454.2 Z " fill="#ff7503" fill-opacity="1.00" />					<path d="M-805.549,457.139 L-804.065,457.996 L-805.001,459.611 L-806.483,458.756 L-805.549,457.139 Z " fill="#fdf4af" fill-opacity="1.00" />					<path d="M-782.078,446.087 L-782.423,444.8 L-803.619,450.479 C-803.619,450.479 -804.266,451.751 -804.432,452.076 C-804.598,452.402 -782.078,446.087 -782.078,446.087 Z " fill="#98a093" fill-opacity="1.00" />					<path d="M-781.618,448.286 L-781.273,449.573 L-802.468,455.252 C-802.468,455.252 -803.665,454.475 -803.971,454.276 C-804.277,454.077 -781.618,448.286 -781.618,448.286 Z " fill="#98a093" fill-opacity="1.00" />					<path d="M-802.985,449.499 L-802.138,448.031 L-816.782,439.576 L-817.63,441.044 L-802.985,449.499 Z " fill="#98a093" fill-opacity="1.00" />					<path d="M-801.244,455.999 L-799.776,456.846 L-808.231,471.49 L-809.699,470.643 L-801.244,455.999 Z " fill="#98a093" fill-opacity="1.00" />				</g>			</g>			<g>				<path d="M-584.756,79.3555 L-598.865,65.9981 C-686.138,87.5662 -755.593,174.974 -783.752,308.379 L-783.752,308.379 C-744.809,185.742 -688.911,104.997 -584.756,79.3555 Z " fill="#a91d2c" fill-opacity="1.00" />				<path d="M-603.535,102.15 L-566.218,67.8879 L-616.331,54.3461 L-603.535,102.15 Z " fill="#a91d2c" fill-opacity="1.00" />			</g>			<path d="M-765.799,-799.722 L-746.446,-752.669 L-785.278,-752.669 L-765.799,-799.722 Z M-788.693,-744.321 L-742.905,-744.321 L-733.039,-720.794 L-722.414,-720.794 L-761.372,-810.347 L-770.226,-810.347 L-809.184,-720.794 L-798.559,-720.794 L-788.693,-744.321 Z " fill="#030303" fill-opacity="1.00" />			<g>				<path d="M50.9182,-423.55 L23.0899,-395.722 L-254.553,-673.364 L-226.725,-701.193 L50.9182,-423.55 Z " fill="#09476b" fill-opacity="1.00" stroke-width="12.42" stroke="#6c5871" stroke-linecap="round" stroke-linejoin="round" />				<path d="M50.9182,-424.046 L23.3984,-395.722 L-32.6458,-451.807 L-4.74428,-479.708 L50.9182,-424.046 Z " fill="#ff7503" fill-opacity="1.00" stroke-width="12.42" stroke="#6c5871" stroke-linecap="round" stroke-linejoin="round" />				<path d="M-4.8334,-479.638 L-32.9725,-451.499 L-63.58,-482.196 L-35.4854,-510.29 L-4.8334,-479.638 Z " fill="#fdf4af" fill-opacity="1.00" stroke-width="12.42" stroke="#6c5871" stroke-linecap="round" stroke-linejoin="round" />			</g>			<g>				<path d="M97.2408,-431.624 L125.069,-403.795 L402.712,-681.438 L374.883,-709.266 L97.2408,-431.624 Z " fill="#09476b" fill-opacity="1.00" stroke-width="12.42" stroke="#6c5871" stroke-linecap="round" stroke-linejoin="round" />				<path d="M97.2408,-432.119 L124.761,-403.795 L180.805,-459.88 L152.903,-487.782 L97.2408,-432.119 Z " fill="#ff7503" fill-opacity="1.00" stroke-width="12.42" stroke="#6c5871" stroke-linecap="round" stroke-linejoin="round" />				<path d="M152.992,-487.712 L181.131,-459.573 L211.739,-490.269 L183.644,-518.364 L152.992,-487.712 Z " fill="#fdf4af" fill-opacity="1.00" stroke-width="12.42" stroke="#6c5871" stroke-linecap="round" stroke-linejoin="round" />			</g>			<path d="M48.3791,110.322 L17.4501,110.322 L17.4502,-399.197 C17.4502,-399.197 42.0817,-421.371 48.3791,-427.04 C54.6765,-432.709 48.3791,110.322 48.3791,110.322 Z " fill="#98a093" fill-opacity="1.00" stroke-width="12.42" stroke="#6c5871" stroke-linecap="round" stroke-linejoin="round" />			<path d="M93.8289,110.322 L124.758,110.322 L124.758,-399.197 C124.758,-399.197 100.126,-421.371 93.8288,-427.04 C87.5314,-432.709 93.8289,110.322 93.8289,110.322 Z " fill="#98a093" fill-opacity="1.00" stroke-width="12.42" stroke="#6c5871" stroke-linecap="round" stroke-linejoin="round" />			<path d="M147.731,-383.223 L159.914,-371.735 L437.556,-649.378 L425.374,-661.561 L147.731,-383.223 Z " fill="#98a093" fill-opacity="1.00" stroke-width="7.70" stroke="#c6494f" stroke-linecap="square" stroke-linejoin="miter" />			<path d="M-5.52326,-377.856 L-17.7058,-366.368 L-295.349,-644.011 L-283.166,-656.194 L-5.52326,-377.856 Z " fill="#98a093" fill-opacity="1.00" stroke-width="7.70" stroke="#c6494f" stroke-linecap="square" stroke-linejoin="miter" />			<path d="M-761.313,-535.62 L-765.912,-535.62 L-750.447,-494.916 L-746.307,-494.916 L-730.44,-535.62 L-734.924,-535.62 L-748.262,-501.125 L-748.377,-501.125 L-761.313,-535.62 Z M-715.262,-508.312 L-715.262,-506.357 C-715.262,-505.169 -715.425,-504.048 -715.751,-502.994 C-716.077,-501.94 -716.585,-501.02 -717.275,-500.234 C-717.964,-499.449 -718.817,-498.826 -719.833,-498.366 C-720.849,-497.906 -722.046,-497.676 -723.426,-497.676 C-724.193,-497.676 -724.95,-497.762 -725.697,-497.935 C-726.444,-498.107 -727.125,-498.395 -727.738,-498.797 C-728.351,-499.2 -728.84,-499.717 -729.204,-500.349 C-729.568,-500.982 -729.75,-501.739 -729.75,-502.62 C-729.75,-503.962 -729.281,-505.016 -728.342,-505.782 C-727.402,-506.549 -726.272,-507.114 -724.95,-507.478 C-723.627,-507.842 -722.247,-508.072 -720.81,-508.168 C-719.373,-508.264 -718.175,-508.312 -717.217,-508.312 L-715.262,-508.312 Z M-717.16,-511.416 C-718.769,-511.416 -720.542,-511.34 -722.477,-511.186 C-724.413,-511.033 -726.234,-510.65 -727.939,-510.037 C-729.645,-509.423 -731.063,-508.494 -732.193,-507.248 C-733.324,-506.003 -733.889,-504.287 -733.889,-502.103 C-733.889,-500.8 -733.631,-499.659 -733.113,-498.682 C-732.596,-497.705 -731.906,-496.881 -731.044,-496.21 C-730.181,-495.539 -729.194,-495.041 -728.083,-494.715 C-726.971,-494.389 -725.821,-494.227 -724.633,-494.227 C-722.449,-494.227 -720.599,-494.619 -719.085,-495.405 C-717.572,-496.191 -716.259,-497.484 -715.147,-499.286 L-715.032,-499.286 C-715.032,-498.558 -715.004,-497.81 -714.946,-497.044 C-714.889,-496.277 -714.802,-495.568 -714.687,-494.916 L-711.008,-494.916 C-711.123,-495.645 -711.228,-496.574 -711.324,-497.705 C-711.42,-498.835 -711.468,-499.918 -711.468,-500.953 L-711.468,-512.969 C-711.468,-514.617 -711.736,-516.035 -712.273,-517.223 C-712.809,-518.411 -713.518,-519.398 -714.4,-520.184 C-715.281,-520.969 -716.326,-521.554 -717.533,-521.937 C-718.741,-522.32 -719.996,-522.512 -721.299,-522.512 C-726.358,-522.512 -730.152,-521.209 -732.682,-518.603 L-730.382,-515.901 C-728.044,-518.009 -725.304,-519.063 -722.161,-519.063 C-717.562,-519.063 -715.262,-516.744 -715.262,-512.106 L-715.262,-511.416 L-717.16,-511.416 Z M-705.144,-494.916 L-701.35,-494.916 L-701.35,-510.094 C-701.35,-511.014 -701.187,-511.972 -700.861,-512.969 C-700.535,-513.965 -700.027,-514.895 -699.337,-515.757 C-698.647,-516.619 -697.785,-517.328 -696.75,-517.884 C-695.715,-518.44 -694.47,-518.718 -693.013,-518.718 C-692.055,-518.718 -691.327,-518.622 -690.829,-518.43 L-690.081,-522.167 C-690.886,-522.397 -691.825,-522.512 -692.898,-522.512 C-694.087,-522.512 -695.15,-522.349 -696.089,-522.023 C-697.028,-521.698 -697.852,-521.266 -698.561,-520.73 C-699.27,-520.193 -699.874,-519.59 -700.372,-518.919 C-700.87,-518.248 -701.254,-517.549 -701.522,-516.82 L-701.637,-516.82 L-701.637,-521.822 L-705.374,-521.822 C-705.336,-519.867 -705.288,-518.277 -705.23,-517.05 C-705.173,-515.824 -705.144,-514.617 -705.144,-513.429 L-705.144,-494.916 Z M-683.815,-532.171 C-683.815,-532.975 -684.102,-533.637 -684.677,-534.154 C-685.252,-534.671 -685.885,-534.93 -686.574,-534.93 C-687.264,-534.93 -687.897,-534.671 -688.472,-534.154 C-689.047,-533.637 -689.334,-532.975 -689.334,-532.171 C-689.334,-531.366 -689.047,-530.705 -688.472,-530.187 C-687.897,-529.67 -687.264,-529.411 -686.574,-529.411 C-685.885,-529.411 -685.252,-529.67 -684.677,-530.187 C-684.102,-530.705 -683.815,-531.366 -683.815,-532.171 Z M-684.677,-521.822 L-688.472,-521.822 L-688.472,-494.916 L-684.677,-494.916 L-684.677,-521.822 Z M-661.163,-508.312 L-661.163,-506.357 C-661.163,-505.169 -661.326,-504.048 -661.652,-502.994 C-661.978,-501.94 -662.486,-501.02 -663.176,-500.234 C-663.866,-499.449 -664.718,-498.826 -665.734,-498.366 C-666.75,-497.906 -667.947,-497.676 -669.327,-497.676 C-670.094,-497.676 -670.851,-497.762 -671.598,-497.935 C-672.345,-498.107 -673.026,-498.395 -673.639,-498.797 C-674.252,-499.2 -674.741,-499.717 -675.105,-500.349 C-675.469,-500.982 -675.651,-501.739 -675.651,-502.62 C-675.651,-503.962 -675.182,-505.016 -674.243,-505.782 C-673.304,-506.549 -672.173,-507.114 -670.851,-507.478 C-669.528,-507.842 -668.149,-508.072 -666.711,-508.168 C-665.274,-508.264 -664.076,-508.312 -663.118,-508.312 L-661.163,-508.312 Z M-663.061,-511.416 C-664.67,-511.416 -666.443,-511.34 -668.379,-511.186 C-670.314,-511.033 -672.135,-510.65 -673.84,-510.037 C-675.546,-509.423 -676.964,-508.494 -678.094,-507.248 C-679.225,-506.003 -679.79,-504.287 -679.79,-502.103 C-679.79,-500.8 -679.532,-499.659 -679.014,-498.682 C-678.497,-497.705 -677.807,-496.881 -676.945,-496.21 C-676.082,-495.539 -675.095,-495.041 -673.984,-494.715 C-672.872,-494.389 -671.723,-494.227 -670.534,-494.227 C-668.35,-494.227 -666.501,-494.619 -664.987,-495.405 C-663.473,-496.191 -662.16,-497.484 -661.048,-499.286 L-660.933,-499.286 C-660.933,-498.558 -660.905,-497.81 -660.847,-497.044 C-660.79,-496.277 -660.704,-495.568 -660.589,-494.916 L-656.909,-494.916 C-657.024,-495.645 -657.13,-496.574 -657.225,-497.705 C-657.321,-498.835 -657.369,-499.918 -657.369,-500.953 L-657.369,-512.969 C-657.369,-514.617 -657.637,-516.035 -658.174,-517.223 C-658.71,-518.411 -659.42,-519.398 -660.301,-520.184 C-661.183,-520.969 -662.227,-521.554 -663.434,-521.937 C-664.642,-522.32 -665.897,-522.512 -667.2,-522.512 C-672.259,-522.512 -676.054,-521.209 -678.583,-518.603 L-676.284,-515.901 C-673.946,-518.009 -671.205,-519.063 -668.062,-519.063 C-663.463,-519.063 -661.163,-516.744 -661.163,-512.106 L-661.163,-511.416 L-663.061,-511.416 Z M-626.899,-508.369 C-626.899,-506.875 -627.138,-505.476 -627.618,-504.172 C-628.097,-502.869 -628.777,-501.739 -629.658,-500.781 C-630.54,-499.822 -631.604,-499.065 -632.849,-498.51 C-634.095,-497.954 -635.503,-497.676 -637.075,-497.676 C-638.646,-497.676 -640.083,-497.954 -641.387,-498.51 C-642.69,-499.065 -643.82,-499.822 -644.779,-500.781 C-645.737,-501.739 -646.484,-502.869 -647.021,-504.172 C-647.557,-505.476 -647.826,-506.875 -647.826,-508.369 C-647.826,-509.864 -647.557,-511.263 -647.021,-512.566 C-646.484,-513.869 -645.737,-515 -644.779,-515.958 C-643.82,-516.916 -642.69,-517.673 -641.387,-518.229 C-640.083,-518.785 -638.646,-519.063 -637.075,-519.063 C-635.503,-519.063 -634.095,-518.785 -632.849,-518.229 C-631.604,-517.673 -630.54,-516.916 -629.658,-515.958 C-628.777,-515 -628.097,-513.869 -627.618,-512.566 C-627.138,-511.263 -626.899,-509.864 -626.899,-508.369 Z M-651.447,-494.916 L-647.653,-494.916 L-647.653,-499.401 L-647.538,-499.401 C-646.925,-498.481 -646.197,-497.695 -645.353,-497.044 C-644.51,-496.392 -643.629,-495.855 -642.709,-495.434 C-641.789,-495.012 -640.84,-494.706 -639.863,-494.514 C-638.886,-494.322 -637.956,-494.227 -637.075,-494.227 C-634.967,-494.227 -633.041,-494.581 -631.297,-495.29 C-629.553,-495.999 -628.049,-496.986 -626.784,-498.251 C-625.519,-499.516 -624.532,-501.01 -623.823,-502.735 C-623.114,-504.46 -622.76,-506.338 -622.76,-508.369 C-622.76,-510.401 -623.114,-512.279 -623.823,-514.003 C-624.532,-515.728 -625.519,-517.223 -626.784,-518.488 C-628.049,-519.753 -629.553,-520.739 -631.297,-521.448 C-633.041,-522.158 -634.967,-522.512 -637.075,-522.512 C-637.956,-522.512 -638.886,-522.416 -639.863,-522.225 C-640.84,-522.033 -641.789,-521.726 -642.709,-521.305 C-643.629,-520.883 -644.51,-520.347 -645.353,-519.695 C-646.197,-519.043 -646.925,-518.258 -647.538,-517.338 L-647.653,-517.338 L-647.653,-538.38 L-651.447,-538.38 L-651.447,-494.916 Z M-614.538,-538.38 L-618.333,-538.38 L-618.333,-494.916 L-614.538,-494.916 L-614.538,-538.38 Z M-605.512,-510.439 C-605.512,-511.55 -605.254,-512.624 -604.736,-513.658 C-604.219,-514.693 -603.529,-515.613 -602.666,-516.418 C-601.804,-517.223 -600.798,-517.865 -599.648,-518.344 C-598.498,-518.823 -597.31,-519.063 -596.084,-519.063 C-593.324,-519.063 -591.178,-518.267 -589.645,-516.677 C-588.112,-515.086 -587.345,-513.007 -587.345,-510.439 L-605.512,-510.439 Z M-583.206,-507.334 L-583.206,-509.059 C-583.206,-510.899 -583.493,-512.633 -584.068,-514.262 C-584.643,-515.891 -585.477,-517.309 -586.569,-518.516 C-587.661,-519.724 -589.012,-520.692 -590.622,-521.42 C-592.232,-522.148 -594.052,-522.512 -596.084,-522.512 C-598,-522.512 -599.782,-522.158 -601.43,-521.448 C-603.079,-520.739 -604.516,-519.753 -605.742,-518.488 C-606.969,-517.223 -607.927,-515.728 -608.617,-514.003 C-609.307,-512.279 -609.652,-510.401 -609.652,-508.369 C-609.652,-506.338 -609.297,-504.46 -608.588,-502.735 C-607.879,-501.01 -606.911,-499.516 -605.685,-498.251 C-604.458,-496.986 -602.992,-495.999 -601.287,-495.29 C-599.581,-494.581 -597.732,-494.227 -595.739,-494.227 C-593.516,-494.227 -591.437,-494.667 -589.501,-495.549 C-587.566,-496.43 -585.793,-497.887 -584.183,-499.918 L-587.115,-502.333 C-587.882,-501.106 -589.003,-500.024 -590.478,-499.085 C-591.954,-498.146 -593.708,-497.676 -595.739,-497.676 C-597.08,-497.676 -598.326,-497.925 -599.476,-498.423 C-600.626,-498.922 -601.641,-499.602 -602.523,-500.464 C-603.404,-501.327 -604.113,-502.352 -604.65,-503.54 C-605.187,-504.728 -605.512,-505.993 -605.627,-507.334 L-583.206,-507.334 Z M-565.671,-494.916 L-561.877,-494.916 L-561.877,-510.094 C-561.877,-511.014 -561.714,-511.972 -561.388,-512.969 C-561.062,-513.965 -560.554,-514.895 -559.865,-515.757 C-559.175,-516.619 -558.312,-517.328 -557.277,-517.884 C-556.243,-518.44 -554.997,-518.718 -553.541,-518.718 C-552.582,-518.718 -551.854,-518.622 -551.356,-518.43 L-550.609,-522.167 C-551.413,-522.397 -552.352,-522.512 -553.426,-522.512 C-554.614,-522.512 -555.677,-522.349 -556.616,-522.023 C-557.555,-521.698 -558.379,-521.266 -559.088,-520.73 C-559.797,-520.193 -560.401,-519.59 -560.899,-518.919 C-561.398,-518.248 -561.781,-517.549 -562.049,-516.82 L-562.164,-516.82 L-562.164,-521.822 L-565.901,-521.822 C-565.863,-519.867 -565.815,-518.277 -565.757,-517.05 C-565.7,-515.824 -565.671,-514.617 -565.671,-513.429 L-565.671,-494.916 Z M-548.136,-510.439 C-548.136,-511.55 -547.878,-512.624 -547.36,-513.658 C-546.843,-514.693 -546.153,-515.613 -545.291,-516.418 C-544.428,-517.223 -543.422,-517.865 -542.272,-518.344 C-541.123,-518.823 -539.934,-519.063 -538.708,-519.063 C-535.948,-519.063 -533.802,-518.267 -532.269,-516.677 C-530.736,-515.086 -529.969,-513.007 -529.969,-510.439 L-548.136,-510.439 Z M-525.83,-507.334 L-525.83,-509.059 C-525.83,-510.899 -526.117,-512.633 -526.692,-514.262 C-527.267,-515.891 -528.101,-517.309 -529.193,-518.516 C-530.286,-519.724 -531.637,-520.692 -533.246,-521.42 C-534.856,-522.148 -536.677,-522.512 -538.708,-522.512 C-540.624,-522.512 -542.407,-522.158 -544.055,-521.448 C-545.703,-520.739 -547.14,-519.753 -548.366,-518.488 C-549.593,-517.223 -550.551,-515.728 -551.241,-514.003 C-551.931,-512.279 -552.276,-510.401 -552.276,-508.369 C-552.276,-506.338 -551.921,-504.46 -551.212,-502.735 C-550.503,-501.01 -549.535,-499.516 -548.309,-498.251 C-547.082,-496.986 -545.616,-495.999 -543.911,-495.29 C-542.205,-494.581 -540.356,-494.227 -538.363,-494.227 C-536.14,-494.227 -534.061,-494.667 -532.125,-495.549 C-530.19,-496.43 -528.417,-497.887 -526.807,-499.918 L-529.739,-502.333 C-530.506,-501.106 -531.627,-500.024 -533.103,-499.085 C-534.578,-498.146 -536.332,-497.676 -538.363,-497.676 C-539.704,-497.676 -540.95,-497.925 -542.1,-498.423 C-543.25,-498.922 -544.265,-499.602 -545.147,-500.464 C-546.028,-501.327 -546.737,-502.352 -547.274,-503.54 C-547.811,-504.728 -548.136,-505.993 -548.251,-507.334 L-525.83,-507.334 Z M-519.046,-508.714 C-519.046,-510.132 -518.787,-511.464 -518.27,-512.71 C-517.753,-513.956 -517.043,-515.048 -516.143,-515.987 C-515.242,-516.926 -514.188,-517.673 -512.981,-518.229 C-511.773,-518.785 -510.461,-519.063 -509.043,-519.063 C-507.471,-519.063 -506.053,-518.785 -504.788,-518.229 C-503.524,-517.673 -502.45,-516.926 -501.569,-515.987 C-500.687,-515.048 -500.017,-513.956 -499.557,-512.71 C-499.097,-511.464 -498.867,-510.132 -498.867,-508.714 C-498.828,-507.143 -499.068,-505.725 -499.585,-504.46 C-500.103,-503.195 -500.841,-502.112 -501.799,-501.212 C-502.757,-500.311 -503.859,-499.612 -505.105,-499.113 C-506.35,-498.615 -507.663,-498.366 -509.043,-498.366 C-510.461,-498.366 -511.773,-498.644 -512.981,-499.2 C-514.188,-499.755 -515.242,-500.503 -516.143,-501.442 C-517.043,-502.381 -517.753,-503.473 -518.27,-504.719 C-518.787,-505.964 -519.046,-507.296 -519.046,-508.714 Z M-522.553,-486.523 C-520.828,-484.683 -518.912,-483.322 -516.804,-482.441 C-514.696,-481.559 -512.3,-481.119 -509.618,-481.119 C-506.59,-481.119 -504.137,-481.579 -502.259,-482.498 C-500.381,-483.418 -498.915,-484.568 -497.861,-485.948 C-496.807,-487.328 -496.098,-488.842 -495.734,-490.49 C-495.369,-492.138 -495.187,-493.69 -495.187,-495.146 L-495.187,-521.822 L-498.982,-521.822 L-498.982,-517.338 L-499.097,-517.338 C-499.863,-518.373 -500.687,-519.226 -501.569,-519.896 C-502.45,-520.567 -503.341,-521.094 -504.242,-521.477 C-505.143,-521.86 -506.044,-522.129 -506.944,-522.282 C-507.845,-522.435 -508.698,-522.512 -509.503,-522.512 C-511.496,-522.512 -513.326,-522.158 -514.993,-521.448 C-516.66,-520.739 -518.097,-519.753 -519.305,-518.488 C-520.512,-517.223 -521.461,-515.747 -522.151,-514.061 C-522.84,-512.375 -523.185,-510.554 -523.185,-508.599 C-523.185,-506.645 -522.821,-504.824 -522.093,-503.138 C-521.365,-501.451 -520.368,-500.004 -519.104,-498.797 C-517.839,-497.59 -516.354,-496.641 -514.648,-495.951 C-512.942,-495.261 -511.112,-494.916 -509.158,-494.916 C-507.203,-494.916 -505.344,-495.3 -503.581,-496.066 C-501.818,-496.833 -500.323,-498.136 -499.097,-499.976 L-498.982,-499.976 L-498.982,-495.146 C-498.982,-493.69 -499.164,-492.32 -499.528,-491.036 C-499.892,-489.752 -500.486,-488.631 -501.31,-487.673 C-502.134,-486.714 -503.217,-485.957 -504.558,-485.402 C-505.9,-484.846 -507.529,-484.568 -509.445,-484.568 C-511.63,-484.568 -513.613,-485.018 -515.395,-485.919 C-517.178,-486.82 -518.624,-488.018 -519.736,-489.512 L-522.553,-486.523 Z M-484.034,-532.171 C-484.034,-532.975 -484.322,-533.637 -484.896,-534.154 C-485.471,-534.671 -486.104,-534.93 -486.794,-534.93 C-487.484,-534.93 -488.116,-534.671 -488.691,-534.154 C-489.266,-533.637 -489.553,-532.975 -489.553,-532.171 C-489.553,-531.366 -489.266,-530.705 -488.691,-530.187 C-488.116,-529.67 -487.484,-529.411 -486.794,-529.411 C-486.104,-529.411 -485.471,-529.67 -484.896,-530.187 C-484.322,-530.705 -484.034,-531.366 -484.034,-532.171 Z M-484.896,-521.822 L-488.691,-521.822 L-488.691,-494.916 L-484.896,-494.916 L-484.896,-521.822 Z M-455.576,-508.369 C-455.576,-506.875 -455.816,-505.476 -456.295,-504.172 C-456.774,-502.869 -457.454,-501.739 -458.336,-500.781 C-459.217,-499.822 -460.281,-499.065 -461.526,-498.51 C-462.772,-497.954 -464.181,-497.676 -465.752,-497.676 C-467.323,-497.676 -468.732,-497.954 -469.978,-498.51 C-471.223,-499.065 -472.277,-499.822 -473.14,-500.781 C-474.002,-501.739 -474.673,-502.869 -475.152,-504.172 C-475.631,-505.476 -475.87,-506.875 -475.87,-508.369 C-475.87,-509.864 -475.631,-511.263 -475.152,-512.566 C-474.673,-513.869 -474.002,-515 -473.14,-515.958 C-472.277,-516.916 -471.223,-517.673 -469.978,-518.229 C-468.732,-518.785 -467.323,-519.063 -465.752,-519.063 C-464.181,-519.063 -462.772,-518.785 -461.526,-518.229 C-460.281,-517.673 -459.217,-516.916 -458.336,-515.958 C-457.454,-515 -456.774,-513.869 -456.295,-512.566 C-455.816,-511.263 -455.576,-509.864 -455.576,-508.369 Z M-451.437,-508.369 C-451.437,-510.401 -451.791,-512.279 -452.5,-514.003 C-453.209,-515.728 -454.196,-517.223 -455.461,-518.488 C-456.726,-519.753 -458.23,-520.739 -459.974,-521.448 C-461.718,-522.158 -463.644,-522.512 -465.752,-522.512 C-467.822,-522.512 -469.728,-522.158 -471.472,-521.448 C-473.216,-520.739 -474.721,-519.753 -475.985,-518.488 C-477.25,-517.223 -478.237,-515.728 -478.946,-514.003 C-479.655,-512.279 -480.01,-510.401 -480.01,-508.369 C-480.01,-506.338 -479.655,-504.46 -478.946,-502.735 C-478.237,-501.01 -477.25,-499.516 -475.985,-498.251 C-474.721,-496.986 -473.216,-495.999 -471.472,-495.29 C-469.728,-494.581 -467.822,-494.227 -465.752,-494.227 C-463.644,-494.227 -461.718,-494.581 -459.974,-495.29 C-458.23,-495.999 -456.726,-496.986 -455.461,-498.251 C-454.196,-499.516 -453.209,-501.01 -452.5,-502.735 C-451.791,-504.46 -451.437,-506.338 -451.437,-508.369 Z M-447.7,-521.822 C-447.623,-520.826 -447.556,-519.772 -447.499,-518.66 C-447.441,-517.549 -447.412,-516.629 -447.412,-515.901 L-447.412,-494.916 L-443.618,-494.916 L-443.618,-508.714 C-443.618,-511.167 -443.235,-513.084 -442.468,-514.463 C-441.702,-515.843 -440.83,-516.878 -439.852,-517.568 C-438.875,-518.258 -437.946,-518.679 -437.064,-518.833 C-436.183,-518.986 -435.646,-519.063 -435.454,-519.063 C-432.656,-519.063 -430.74,-518.267 -429.705,-516.677 C-428.67,-515.086 -428.153,-512.796 -428.153,-509.807 L-428.153,-494.916 L-424.359,-494.916 L-424.359,-511.991 C-424.359,-515.364 -425.183,-517.961 -426.831,-519.781 C-428.479,-521.602 -431.028,-522.512 -434.477,-522.512 C-435.359,-522.512 -436.25,-522.387 -437.15,-522.138 C-438.051,-521.889 -438.904,-521.544 -439.709,-521.104 C-440.514,-520.663 -441.242,-520.136 -441.893,-519.523 C-442.545,-518.909 -443.081,-518.239 -443.503,-517.51 L-443.618,-517.51 C-443.618,-518.239 -443.628,-518.957 -443.647,-519.666 C-443.666,-520.375 -443.714,-521.094 -443.791,-521.822 L-447.7,-521.822 Z " fill="#0d1402" fill-opacity="1.00" />			<path d="M-719.634,679.787 L-708.594,679.787 C-704.238,679.787 -700.933,680.638 -698.68,682.34 C-696.427,684.042 -695.3,686.646 -695.3,690.151 C-695.3,691.903 -695.663,693.405 -696.389,694.657 C-697.115,695.909 -698.104,696.948 -699.356,697.774 C-700.608,698.6 -702.085,699.213 -703.787,699.614 C-705.489,700.015 -707.317,700.215 -709.27,700.215 L-719.634,700.215 L-719.634,679.787 Z M-719.634,656.955 L-709.27,656.955 C-706.716,656.955 -704.688,657.318 -703.186,658.044 C-701.684,658.77 -700.545,659.634 -699.769,660.635 C-698.993,661.636 -698.492,662.638 -698.267,663.639 C-698.042,664.641 -697.929,665.417 -697.929,665.967 C-697.929,667.67 -698.254,669.109 -698.905,670.286 C-699.556,671.463 -700.395,672.426 -701.421,673.177 C-702.448,673.928 -703.599,674.467 -704.876,674.792 C-706.153,675.118 -707.442,675.28 -708.744,675.28 L-719.634,675.28 L-719.634,656.955 Z M-725.042,705.172 L-708.819,705.172 C-704.563,705.172 -701.158,704.571 -698.605,703.369 C-696.051,702.168 -694.099,700.753 -692.747,699.126 C-691.395,697.499 -690.506,695.859 -690.081,694.207 C-689.655,692.554 -689.442,691.303 -689.442,690.451 C-689.442,686.546 -690.506,683.429 -692.634,681.101 C-694.762,678.773 -697.704,677.458 -701.459,677.158 L-701.459,677.008 C-698.455,676.307 -696.139,674.917 -694.512,672.839 C-692.884,670.762 -692.071,668.271 -692.071,665.367 C-692.071,662.863 -692.546,660.76 -693.498,659.058 C-694.449,657.355 -695.726,655.979 -697.328,654.927 C-698.93,653.876 -700.758,653.125 -702.811,652.674 C-704.864,652.223 -706.992,651.998 -709.195,651.998 L-725.042,651.998 L-725.042,705.172 Z M-679.679,684.894 C-679.679,683.442 -679.341,682.04 -678.665,680.688 C-677.989,679.336 -677.088,678.134 -675.961,677.083 C-674.834,676.031 -673.52,675.193 -672.018,674.567 C-670.516,673.941 -668.964,673.628 -667.362,673.628 C-663.757,673.628 -660.953,674.667 -658.95,676.745 C-656.947,678.823 -655.946,681.539 -655.946,684.894 L-679.679,684.894 Z M-650.538,688.949 L-650.538,686.696 C-650.538,684.293 -650.914,682.027 -651.665,679.899 C-652.416,677.771 -653.505,675.919 -654.932,674.342 C-656.359,672.764 -658.124,671.5 -660.227,670.549 C-662.33,669.597 -664.708,669.122 -667.362,669.122 C-669.865,669.122 -672.193,669.585 -674.346,670.511 C-676.499,671.437 -678.377,672.727 -679.979,674.379 C-681.581,676.031 -682.833,677.984 -683.734,680.237 C-684.636,682.49 -685.086,684.944 -685.086,687.597 C-685.086,690.251 -684.623,692.704 -683.697,694.958 C-682.77,697.211 -681.506,699.163 -679.904,700.816 C-678.302,702.468 -676.387,703.757 -674.159,704.684 C-671.93,705.61 -669.515,706.073 -666.911,706.073 C-664.007,706.073 -661.291,705.497 -658.762,704.346 C-656.234,703.194 -653.918,701.291 -651.815,698.638 L-655.645,695.483 C-656.647,697.086 -658.111,698.5 -660.039,699.727 C-661.967,700.953 -664.257,701.567 -666.911,701.567 C-668.663,701.567 -670.291,701.241 -671.793,700.59 C-673.295,699.939 -674.622,699.051 -675.773,697.924 C-676.925,696.798 -677.851,695.458 -678.552,693.906 C-679.253,692.354 -679.679,690.702 -679.829,688.949 L-650.538,688.949 Z M-639.198,648.393 L-644.154,648.393 L-644.154,705.172 L-639.198,705.172 L-639.198,648.393 Z M-624.928,648.393 L-629.885,648.393 L-629.885,705.172 L-624.928,705.172 L-624.928,648.393 Z " fill="#0d1402" fill-opacity="1.00" />			<path d="M-155.89,292.801 L-161.297,292.801 L-161.297,345.975 L-155.89,345.975 L-155.89,292.801 Z M-147.027,345.975 L-142.07,345.975 L-142.07,327.95 C-142.07,324.746 -141.607,322.242 -140.681,320.44 C-139.755,318.637 -138.716,317.285 -137.564,316.384 C-136.413,315.483 -135.299,314.932 -134.222,314.732 C-133.146,314.531 -132.457,314.431 -132.157,314.431 C-128.752,314.431 -126.424,315.383 -125.172,317.285 C-123.92,319.188 -123.294,321.917 -123.294,325.472 L-123.294,345.975 L-118.338,345.975 L-118.338,327.274 C-118.338,325.622 -118.162,324.032 -117.812,322.505 C-117.461,320.978 -116.898,319.614 -116.122,318.412 C-115.346,317.21 -114.332,316.246 -113.08,315.52 C-111.829,314.794 -110.276,314.431 -108.424,314.431 C-105.019,314.431 -102.691,315.383 -101.439,317.285 C-100.187,319.188 -99.5615,321.917 -99.5615,325.472 L-99.5615,345.975 L-94.6047,345.975 L-94.6047,323.669 C-94.6047,319.263 -95.6811,315.871 -97.8341,313.493 C-99.9871,311.114 -103.317,309.925 -107.823,309.925 C-110.176,309.925 -112.442,310.576 -114.62,311.878 C-116.798,313.18 -118.388,314.957 -119.389,317.21 C-119.99,315.708 -120.728,314.481 -121.605,313.53 C-122.481,312.579 -123.42,311.84 -124.421,311.315 C-125.422,310.789 -126.461,310.426 -127.538,310.226 C-128.614,310.025 -129.628,309.925 -130.58,309.925 C-132.682,309.925 -134.798,310.451 -136.926,311.502 C-139.054,312.554 -140.719,314.106 -141.92,316.159 L-142.07,316.159 L-142.07,310.826 L-147.403,310.826 C-147.303,312.128 -147.215,313.43 -147.14,314.732 C-147.065,316.034 -147.027,317.335 -147.027,318.637 L-147.027,345.975 Z M-86.7938,345.975 L-81.837,345.975 L-81.837,327.95 C-81.837,324.746 -81.3738,322.242 -80.4475,320.44 C-79.5212,318.637 -78.4823,317.285 -77.3307,316.384 C-76.1791,315.483 -75.0651,314.932 -73.9886,314.732 C-72.9121,314.531 -72.2236,314.431 -71.9232,314.431 C-68.5185,314.431 -66.1903,315.383 -64.9385,317.285 C-63.6868,319.188 -63.0609,321.917 -63.0609,325.472 L-63.0609,345.975 L-58.1041,345.975 L-58.1041,327.274 C-58.1041,325.622 -57.9288,324.032 -57.5783,322.505 C-57.2278,320.978 -56.6646,319.614 -55.8885,318.412 C-55.1124,317.21 -54.0985,316.246 -52.8468,315.52 C-51.595,314.794 -50.0429,314.431 -48.1903,314.431 C-44.7856,314.431 -42.4574,315.383 -41.2056,317.285 C-39.9539,319.188 -39.328,321.917 -39.328,325.472 L-39.328,345.975 L-34.3712,345.975 L-34.3712,323.669 C-34.3712,319.263 -35.4477,315.871 -37.6006,313.493 C-39.7536,311.114 -43.0832,309.925 -47.5895,309.925 C-49.9428,309.925 -52.2084,310.576 -54.3864,311.878 C-56.5644,313.18 -58.1541,314.957 -59.1555,317.21 C-59.7564,315.708 -60.4949,314.481 -61.3711,313.53 C-62.2473,312.579 -63.1861,311.84 -64.1875,311.315 C-65.1889,310.789 -66.2278,310.426 -67.3043,310.226 C-68.3808,310.025 -69.3947,309.925 -70.346,309.925 C-72.4489,309.925 -74.5644,310.451 -76.6923,311.502 C-78.8203,312.554 -80.4851,314.106 -81.6867,316.159 L-81.837,316.159 L-81.837,310.826 L-87.1693,310.826 C-87.0692,312.128 -86.9816,313.43 -86.9065,314.732 C-86.8314,316.034 -86.7938,317.335 -86.7938,318.637 L-86.7938,345.975 Z M3.93192,345.975 C3.83178,344.673 3.74416,343.296 3.66905,341.844 C3.59395,340.392 3.5564,339.191 3.5564,338.239 L3.5564,310.826 L-1.40047,310.826 L-1.40047,328.851 C-1.40047,332.056 -1.90117,334.559 -2.90255,336.362 C-3.90394,338.164 -5.04302,339.516 -6.31979,340.417 C-7.59656,341.319 -8.81074,341.869 -9.96234,342.07 C-11.1139,342.27 -11.8149,342.37 -12.0653,342.37 C-13.9178,342.37 -15.4575,342.107 -16.6842,341.581 C-17.9109,341.056 -18.8872,340.28 -19.6132,339.253 C-20.3392,338.227 -20.8524,336.963 -21.1528,335.46 C-21.4533,333.958 -21.6035,332.231 -21.6035,330.278 L-21.6035,310.826 L-26.5603,310.826 L-26.5603,333.132 C-26.5603,337.538 -25.4839,340.931 -23.3309,343.309 C-21.1779,345.687 -17.8483,346.876 -13.342,346.876 C-12.1904,346.876 -11.0263,346.714 -9.84968,346.388 C-8.67305,346.063 -7.55901,345.612 -6.50755,345.036 C-5.45609,344.46 -4.50478,343.772 -3.6536,342.971 C-2.80242,342.17 -2.10144,341.294 -1.55068,340.342 L-1.40047,340.342 C-1.40047,341.294 -1.38796,342.232 -1.36292,343.159 C-1.33789,344.085 -1.2753,345.024 -1.17516,345.975 L3.93192,345.975 Z M11.0668,310.826 C11.1669,312.128 11.2546,313.505 11.3297,314.957 C11.4048,316.409 11.4423,317.611 11.4423,318.562 L11.4423,345.975 L16.3992,345.975 L16.3992,327.95 C16.3992,324.746 16.8999,322.242 17.9013,320.44 C18.9027,318.637 20.0417,317.285 21.3185,316.384 C22.5953,315.483 23.8095,314.932 24.9611,314.732 C26.1127,314.531 26.8136,314.431 27.064,314.431 C30.719,314.431 33.2225,315.47 34.5744,317.548 C35.9263,319.626 36.6022,322.618 36.6022,326.523 L36.6022,345.975 L41.5591,345.975 L41.5591,323.669 C41.5591,319.263 40.4826,315.871 38.3296,313.493 C36.1766,311.114 32.847,309.925 28.3407,309.925 C27.1892,309.925 26.025,310.088 24.8484,310.413 C23.6718,310.739 22.5577,311.189 21.5063,311.765 C20.4548,312.341 19.5035,313.029 18.6523,313.831 C17.8011,314.632 17.1002,315.508 16.5494,316.459 L16.3992,316.459 C16.3992,315.508 16.3867,314.569 16.3616,313.643 C16.3366,312.716 16.274,311.778 16.1739,310.826 L11.0668,310.826 Z M79.5617,328.401 C79.5617,330.353 79.2488,332.181 78.6229,333.883 C77.9971,335.586 77.1083,337.063 75.9567,338.314 C74.8051,339.566 73.4157,340.555 71.7885,341.281 C70.1612,342.007 68.3212,342.37 66.2683,342.37 C64.2155,342.37 62.3754,342.007 60.7482,341.281 C59.1209,340.555 57.744,339.566 56.6174,338.314 C55.4909,337.063 54.6147,335.586 53.9888,333.883 C53.3629,332.181 53.05,330.353 53.05,328.401 C53.05,326.448 53.3629,324.62 53.9888,322.918 C54.6147,321.216 55.4909,319.739 56.6174,318.487 C57.744,317.235 59.1209,316.246 60.7482,315.52 C62.3754,314.794 64.2155,314.431 66.2683,314.431 C68.3212,314.431 70.1612,314.794 71.7885,315.52 C73.4157,316.246 74.8051,317.235 75.9567,318.487 C77.1083,319.739 77.9971,321.216 78.6229,322.918 C79.2488,324.62 79.5617,326.448 79.5617,328.401 Z M84.9692,328.401 C84.9692,325.747 84.5061,323.294 83.5798,321.041 C82.6535,318.787 81.3642,316.835 79.7119,315.182 C78.0597,313.53 76.0944,312.241 73.8163,311.315 C71.5381,310.388 69.0221,309.925 66.2683,309.925 C63.5646,309.925 61.0736,310.388 58.7955,311.315 C56.5173,312.241 54.5521,313.53 52.8998,315.182 C51.2475,316.835 49.9582,318.787 49.0319,321.041 C48.1056,323.294 47.6425,325.747 47.6425,328.401 C47.6425,331.054 48.1056,333.508 49.0319,335.761 C49.9582,338.014 51.2475,339.967 52.8998,341.619 C54.5521,343.271 56.5173,344.561 58.7955,345.487 C61.0736,346.413 63.5646,346.876 66.2683,346.876 C69.0221,346.876 71.5381,346.413 73.8163,345.487 C76.0944,344.561 78.0597,343.271 79.7119,341.619 C81.3642,339.967 82.6535,338.014 83.5798,335.761 C84.5061,333.508 84.9692,331.054 84.9692,328.401 Z M93.8315,327.95 C93.8315,326.098 94.1695,324.358 94.8454,322.73 C95.5214,321.103 96.4476,319.676 97.6243,318.449 C98.8009,317.223 100.178,316.246 101.755,315.52 C103.332,314.794 105.047,314.431 106.9,314.431 C108.952,314.431 110.805,314.794 112.457,315.52 C114.11,316.246 115.512,317.223 116.663,318.449 C117.815,319.676 118.691,321.103 119.292,322.73 C119.893,324.358 120.193,326.098 120.193,327.95 C120.243,330.003 119.93,331.855 119.254,333.508 C118.578,335.16 117.614,336.575 116.363,337.751 C115.111,338.928 113.672,339.842 112.044,340.492 C110.417,341.143 108.702,341.469 106.9,341.469 C105.047,341.469 103.332,341.106 101.755,340.38 C100.178,339.654 98.8009,338.677 97.6243,337.451 C96.4476,336.224 95.5214,334.797 94.8454,333.17 C94.1695,331.543 93.8315,329.803 93.8315,327.95 Z M89.2502,356.94 C91.5033,359.344 94.0068,361.121 96.7606,362.273 C99.5144,363.424 102.644,364 106.149,364 C110.104,364 113.309,363.399 115.762,362.198 C118.215,360.996 120.13,359.494 121.507,357.691 C122.884,355.889 123.811,353.911 124.286,351.758 C124.762,349.605 125,347.577 125,345.675 L125,310.826 L120.043,310.826 L120.043,316.684 L119.893,316.684 C118.891,315.333 117.815,314.219 116.663,313.342 C115.512,312.466 114.347,311.778 113.171,311.277 C111.994,310.776 110.818,310.426 109.641,310.226 C108.464,310.025 107.35,309.925 106.299,309.925 C103.695,309.925 101.304,310.388 99.1264,311.315 C96.9483,312.241 95.0707,313.53 93.4935,315.182 C91.9164,316.835 90.6771,318.762 89.7759,320.965 C88.8746,323.168 88.424,325.547 88.424,328.1 C88.424,330.654 88.8997,333.032 89.851,335.235 C90.8023,337.438 92.1041,339.328 93.7564,340.906 C95.4087,342.483 97.3489,343.722 99.577,344.623 C101.805,345.524 104.196,345.975 106.749,345.975 C109.303,345.975 111.731,345.474 114.035,344.473 C116.338,343.472 118.29,341.769 119.893,339.366 L120.043,339.366 L120.043,345.675 C120.043,347.577 119.805,349.367 119.329,351.045 C118.854,352.722 118.078,354.186 117.001,355.438 C115.925,356.69 114.51,357.679 112.758,358.405 C111.005,359.131 108.877,359.494 106.374,359.494 C103.52,359.494 100.929,358.905 98.6006,357.729 C96.2724,356.552 94.3823,354.988 92.9303,353.035 L89.2502,356.94 Z M138.443,289.196 L133.486,289.196 L133.486,345.975 L138.443,345.975 L138.443,289.196 Z M176.746,328.401 C176.746,330.353 176.434,332.181 175.808,333.883 C175.182,335.586 174.293,337.063 173.141,338.314 C171.99,339.566 170.6,340.555 168.973,341.281 C167.346,342.007 165.506,342.37 163.453,342.37 C161.4,342.37 159.56,342.007 157.933,341.281 C156.306,340.555 154.929,339.566 153.802,338.314 C152.676,337.063 151.799,335.586 151.173,333.883 C150.548,332.181 150.235,330.353 150.235,328.401 C150.235,326.448 150.548,324.62 151.173,322.918 C151.799,321.216 152.676,319.739 153.802,318.487 C154.929,317.235 156.306,316.246 157.933,315.52 C159.56,314.794 161.4,314.431 163.453,314.431 C165.506,314.431 167.346,314.794 168.973,315.52 C170.6,316.246 171.99,317.235 173.141,318.487 C174.293,319.739 175.182,321.216 175.808,322.918 C176.434,324.62 176.746,326.448 176.746,328.401 Z M182.154,328.401 C182.154,325.747 181.691,323.294 180.765,321.041 C179.838,318.787 178.549,316.835 176.897,315.182 C175.244,313.53 173.279,312.241 171.001,311.315 C168.723,310.388 166.207,309.925 163.453,309.925 C160.749,309.925 158.258,310.388 155.98,311.315 C153.702,312.241 151.737,313.53 150.084,315.182 C148.432,316.835 147.143,318.787 146.217,321.041 C145.29,323.294 144.827,325.747 144.827,328.401 C144.827,331.054 145.29,333.508 146.217,335.761 C147.143,338.014 148.432,339.967 150.084,341.619 C151.737,343.271 153.702,344.561 155.98,345.487 C158.258,346.413 160.749,346.876 163.453,346.876 C166.207,346.876 168.723,346.413 171.001,345.487 C173.279,344.561 175.244,343.271 176.897,341.619 C178.549,339.967 179.838,338.014 180.765,335.761 C181.691,333.508 182.154,331.054 182.154,328.401 Z M219.481,328.401 C219.481,330.353 219.168,332.181 218.542,333.883 C217.916,335.586 217.027,337.063 215.876,338.314 C214.724,339.566 213.335,340.555 211.707,341.281 C210.08,342.007 208.24,342.37 206.187,342.37 C204.134,342.37 202.257,342.007 200.554,341.281 C198.852,340.555 197.375,339.566 196.123,338.314 C194.872,337.063 193.895,335.586 193.194,333.883 C192.493,332.181 192.143,330.353 192.143,328.401 C192.143,326.448 192.493,324.62 193.194,322.918 C193.895,321.216 194.872,319.739 196.123,318.487 C197.375,317.235 198.852,316.246 200.554,315.52 C202.257,314.794 204.134,314.431 206.187,314.431 C208.24,314.431 210.08,314.794 211.707,315.52 C213.335,316.246 214.724,317.235 215.876,318.487 C217.027,319.739 217.916,321.216 218.542,322.918 C219.168,324.62 219.481,326.448 219.481,328.401 Z M187.411,345.975 L192.368,345.975 L192.368,340.117 L192.518,340.117 C193.319,341.319 194.271,342.345 195.372,343.196 C196.474,344.047 197.625,344.748 198.827,345.299 C200.029,345.85 201.268,346.25 202.545,346.501 C203.821,346.751 205.036,346.876 206.187,346.876 C208.941,346.876 211.457,346.413 213.735,345.487 C216.013,344.561 217.979,343.271 219.631,341.619 C221.283,339.967 222.572,338.014 223.499,335.761 C224.425,333.508 224.888,331.054 224.888,328.401 C224.888,325.747 224.425,323.294 223.499,321.041 C222.572,318.787 221.283,316.835 219.631,315.182 C217.979,313.53 216.013,312.241 213.735,311.315 C211.457,310.388 208.941,309.925 206.187,309.925 C205.036,309.925 203.821,310.05 202.545,310.301 C201.268,310.551 200.029,310.952 198.827,311.502 C197.625,312.053 196.474,312.754 195.372,313.605 C194.271,314.456 193.319,315.483 192.518,316.684 L192.368,316.684 L192.368,289.196 L187.411,289.196 L187.411,345.975 Z M260.037,345.975 C259.937,344.673 259.849,343.296 259.774,341.844 C259.699,340.392 259.661,339.191 259.661,338.239 L259.661,310.826 L254.704,310.826 L254.704,328.851 C254.704,332.056 254.204,334.559 253.202,336.362 C252.201,338.164 251.062,339.516 249.785,340.417 C248.508,341.319 247.294,341.869 246.143,342.07 C244.991,342.27 244.29,342.37 244.04,342.37 C242.187,342.37 240.647,342.107 239.421,341.581 C238.194,341.056 237.218,340.28 236.492,339.253 C235.766,338.227 235.253,336.963 234.952,335.46 C234.652,333.958 234.501,332.231 234.501,330.278 L234.501,310.826 L229.545,310.826 L229.545,333.132 C229.545,337.538 230.621,340.931 232.774,343.309 C234.927,345.687 238.257,346.876 242.763,346.876 C243.915,346.876 245.079,346.714 246.255,346.388 C247.432,346.063 248.546,345.612 249.597,345.036 C250.649,344.46 251.6,343.772 252.451,342.971 C253.303,342.17 254.004,341.294 254.554,340.342 L254.704,340.342 C254.704,341.294 254.717,342.232 254.742,343.159 C254.767,344.085 254.83,345.024 254.93,345.975 L260.037,345.975 Z M273.631,289.196 L268.674,289.196 L268.674,345.975 L273.631,345.975 L273.631,289.196 Z M289.027,297.308 C289.027,296.256 288.652,295.392 287.9,294.717 C287.149,294.041 286.323,293.703 285.422,293.703 C284.521,293.703 283.695,294.041 282.944,294.717 C282.193,295.392 281.817,296.256 281.817,297.308 C281.817,298.359 282.193,299.223 282.944,299.899 C283.695,300.575 284.521,300.913 285.422,300.913 C286.323,300.913 287.149,300.575 287.9,299.899 C288.652,299.223 289.027,298.359 289.027,297.308 Z M287.9,310.826 L282.944,310.826 L282.944,345.975 L287.9,345.975 L287.9,310.826 Z M295.711,310.826 C295.811,312.128 295.899,313.505 295.974,314.957 C296.049,316.409 296.087,317.611 296.087,318.562 L296.087,345.975 L301.044,345.975 L301.044,327.95 C301.044,324.746 301.544,322.242 302.546,320.44 C303.547,318.637 304.686,317.285 305.963,316.384 C307.24,315.483 308.454,314.932 309.606,314.732 C310.757,314.531 311.458,314.431 311.708,314.431 C315.364,314.431 317.867,315.47 319.219,317.548 C320.571,319.626 321.247,322.618 321.247,326.523 L321.247,345.975 L326.204,345.975 L326.204,323.669 C326.204,319.263 325.127,315.871 322.974,313.493 C320.821,311.114 317.492,309.925 312.985,309.925 C311.834,309.925 310.67,310.088 309.493,310.413 C308.316,310.739 307.202,311.189 306.151,311.765 C305.099,312.341 304.148,313.029 303.297,313.831 C302.446,314.632 301.745,315.508 301.194,316.459 L301.044,316.459 C301.044,315.508 301.031,314.569 301.006,313.643 C300.981,312.716 300.919,311.778 300.818,310.826 L295.711,310.826 Z " fill="#0d1402" fill-opacity="1.00" />			<path d="M409.81,-131.513 C409.057,-130.346 408.239,-129.377 407.354,-128.605 C406.469,-127.833 405.528,-127.222 404.531,-126.77 C403.533,-126.318 402.517,-125.998 401.482,-125.81 C400.446,-125.622 399.402,-125.528 398.348,-125.528 C395.788,-125.528 393.492,-125.998 391.459,-126.939 C389.426,-127.88 387.704,-129.141 386.292,-130.722 C384.881,-132.304 383.798,-134.139 383.046,-136.228 C382.293,-138.317 381.916,-140.51 381.916,-142.806 C381.916,-145.102 382.293,-147.295 383.046,-149.384 C383.798,-151.473 384.881,-153.309 386.292,-154.89 C387.704,-156.471 389.426,-157.732 391.459,-158.673 C393.492,-159.614 395.788,-160.084 398.348,-160.084 C399.402,-160.084 400.456,-159.934 401.51,-159.633 C402.564,-159.332 403.552,-158.936 404.474,-158.447 C405.396,-157.958 406.215,-157.393 406.93,-156.753 C407.646,-156.113 408.21,-155.473 408.624,-154.833 L412.182,-157.487 C410.412,-159.746 408.286,-161.364 405.801,-162.343 C403.317,-163.322 400.832,-163.811 398.348,-163.811 C395.374,-163.811 392.616,-163.284 390.076,-162.23 C387.535,-161.176 385.332,-159.717 383.469,-157.854 C381.606,-155.991 380.147,-153.779 379.093,-151.219 C378.039,-148.66 377.512,-145.855 377.512,-142.806 C377.512,-139.757 378.039,-136.952 379.093,-134.393 C380.147,-131.833 381.606,-129.621 383.469,-127.758 C385.332,-125.895 387.535,-124.436 390.076,-123.382 C392.616,-122.328 395.374,-121.801 398.348,-121.801 C400.004,-121.801 401.576,-121.989 403.063,-122.366 C404.549,-122.742 405.933,-123.26 407.213,-123.918 C408.493,-124.577 409.631,-125.358 410.629,-126.262 C411.626,-127.165 412.464,-128.125 413.142,-129.141 L409.81,-131.513 Z M441.261,-136.03 C441.261,-134.562 441.026,-133.188 440.556,-131.908 C440.085,-130.628 439.417,-129.518 438.551,-128.577 C437.685,-127.636 436.641,-126.892 435.417,-126.346 C434.194,-125.801 432.81,-125.528 431.267,-125.528 C429.724,-125.528 428.34,-125.801 427.117,-126.346 C425.893,-126.892 424.858,-127.636 424.011,-128.577 C423.164,-129.518 422.505,-130.628 422.035,-131.908 C421.564,-133.188 421.329,-134.562 421.329,-136.03 C421.329,-137.498 421.564,-138.872 422.035,-140.152 C422.505,-141.432 423.164,-142.543 424.011,-143.484 C424.858,-144.425 425.893,-145.168 427.117,-145.714 C428.34,-146.26 429.724,-146.533 431.267,-146.533 C432.81,-146.533 434.194,-146.26 435.417,-145.714 C436.641,-145.168 437.685,-144.425 438.551,-143.484 C439.417,-142.543 440.085,-141.432 440.556,-140.152 C441.026,-138.872 441.261,-137.498 441.261,-136.03 Z M445.327,-136.03 C445.327,-138.025 444.979,-139.87 444.282,-141.564 C443.586,-143.258 442.616,-144.726 441.374,-145.968 C440.132,-147.21 438.655,-148.18 436.942,-148.876 C435.229,-149.572 433.337,-149.921 431.267,-149.921 C429.234,-149.921 427.361,-149.572 425.649,-148.876 C423.936,-148.18 422.458,-147.21 421.216,-145.968 C419.974,-144.726 419.005,-143.258 418.308,-141.564 C417.612,-139.87 417.264,-138.025 417.264,-136.03 C417.264,-134.035 417.612,-132.191 418.308,-130.497 C419.005,-128.803 419.974,-127.335 421.216,-126.092 C422.458,-124.85 423.936,-123.881 425.649,-123.184 C427.361,-122.488 429.234,-122.14 431.267,-122.14 C433.337,-122.14 435.229,-122.488 436.942,-123.184 C438.655,-123.881 440.132,-124.85 441.374,-126.092 C442.616,-127.335 443.586,-128.803 444.282,-130.497 C444.979,-132.191 445.327,-134.035 445.327,-136.03 Z M451.82,-149.243 C451.896,-148.264 451.961,-147.229 452.018,-146.137 C452.074,-145.046 452.103,-144.142 452.103,-143.427 L452.103,-122.817 L455.829,-122.817 L455.829,-136.369 C455.829,-138.778 456.206,-140.66 456.959,-142.016 C457.712,-143.371 458.568,-144.387 459.528,-145.065 C460.488,-145.742 461.401,-146.156 462.266,-146.307 C463.132,-146.457 463.659,-146.533 463.847,-146.533 C466.595,-146.533 468.478,-145.752 469.494,-144.189 C470.51,-142.627 471.019,-140.378 471.019,-137.442 L471.019,-122.817 L474.745,-122.817 L474.745,-139.588 C474.745,-142.9 473.936,-145.451 472.317,-147.239 C470.699,-149.027 468.195,-149.921 464.807,-149.921 C463.942,-149.921 463.066,-149.798 462.182,-149.554 C461.297,-149.309 460.46,-148.97 459.669,-148.537 C458.878,-148.104 458.163,-147.587 457.523,-146.984 C456.883,-146.382 456.356,-145.723 455.942,-145.008 L455.829,-145.008 C455.829,-145.723 455.82,-146.429 455.801,-147.126 C455.782,-147.822 455.735,-148.528 455.66,-149.243 L451.82,-149.243 Z M500.832,-145.178 C499.966,-146.909 498.743,-148.133 497.162,-148.848 C495.581,-149.563 493.868,-149.921 492.024,-149.921 C490.781,-149.921 489.577,-149.761 488.41,-149.441 C487.243,-149.121 486.198,-148.641 485.276,-148.001 C484.354,-147.361 483.62,-146.533 483.074,-145.516 C482.528,-144.5 482.255,-143.314 482.255,-141.959 C482.255,-140.717 482.519,-139.672 483.046,-138.825 C483.573,-137.978 484.203,-137.291 484.937,-136.764 C485.671,-136.237 486.424,-135.842 487.196,-135.578 C487.968,-135.315 488.579,-135.127 489.031,-135.014 L492.645,-134.167 C494.038,-133.828 495.223,-133.367 496.202,-132.783 C497.181,-132.2 497.67,-131.249 497.67,-129.932 C497.67,-129.179 497.491,-128.52 497.134,-127.956 C496.776,-127.391 496.306,-126.93 495.722,-126.572 C495.139,-126.215 494.47,-125.951 493.718,-125.782 C492.965,-125.612 492.212,-125.528 491.459,-125.528 C489.878,-125.528 488.513,-125.885 487.365,-126.601 C486.217,-127.316 485.267,-128.276 484.514,-129.48 L481.295,-127.278 C482.537,-125.396 484.034,-124.069 485.784,-123.297 C487.535,-122.526 489.426,-122.14 491.459,-122.14 C492.739,-122.14 494,-122.29 495.242,-122.591 C496.484,-122.893 497.585,-123.373 498.545,-124.031 C499.505,-124.69 500.277,-125.537 500.86,-126.572 C501.444,-127.607 501.736,-128.84 501.736,-130.271 C501.736,-132.153 501.124,-133.725 499.901,-134.986 C498.677,-136.247 497.143,-137.084 495.299,-137.498 L491.515,-138.402 C489.784,-138.816 488.485,-139.305 487.619,-139.87 C486.754,-140.435 486.321,-141.338 486.321,-142.58 C486.321,-143.295 486.481,-143.898 486.801,-144.387 C487.121,-144.876 487.544,-145.281 488.071,-145.601 C488.598,-145.921 489.191,-146.156 489.85,-146.307 C490.508,-146.457 491.158,-146.533 491.798,-146.533 C493.153,-146.533 494.301,-146.213 495.242,-145.573 C496.183,-144.933 496.936,-144.067 497.501,-142.975 L500.832,-145.178 Z M521.216,-149.243 L513.593,-149.243 L513.593,-156.697 L509.867,-156.697 L509.867,-149.243 L504.277,-149.243 L504.277,-145.855 L509.867,-145.855 L509.867,-129.198 C509.867,-127.73 510.074,-126.544 510.488,-125.641 C510.902,-124.737 511.429,-124.022 512.069,-123.495 C512.709,-122.968 513.415,-122.61 514.186,-122.422 C514.958,-122.234 515.701,-122.14 516.417,-122.14 C518.374,-122.14 520.049,-122.46 521.442,-123.1 L521.273,-126.544 C520.708,-126.243 520.087,-125.998 519.409,-125.81 C518.732,-125.622 518.073,-125.528 517.433,-125.528 C516.868,-125.528 516.351,-125.594 515.88,-125.725 C515.41,-125.857 515.005,-126.092 514.666,-126.431 C514.327,-126.77 514.064,-127.25 513.876,-127.871 C513.687,-128.492 513.593,-129.292 513.593,-130.271 L513.593,-145.855 L521.216,-145.855 L521.216,-149.243 Z M543.238,-135.974 L543.238,-134.054 C543.238,-132.887 543.078,-131.786 542.758,-130.751 C542.438,-129.716 541.939,-128.812 541.261,-128.04 C540.584,-127.269 539.746,-126.657 538.749,-126.205 C537.751,-125.754 536.575,-125.528 535.22,-125.528 C534.467,-125.528 533.723,-125.612 532.989,-125.782 C532.255,-125.951 531.587,-126.233 530.985,-126.629 C530.382,-127.024 529.902,-127.532 529.545,-128.153 C529.187,-128.774 529.008,-129.518 529.008,-130.384 C529.008,-131.701 529.47,-132.736 530.392,-133.489 C531.314,-134.242 532.425,-134.797 533.723,-135.155 C535.022,-135.513 536.377,-135.738 537.789,-135.833 C539.2,-135.927 540.377,-135.974 541.318,-135.974 L543.238,-135.974 Z M541.374,-139.023 C539.793,-139.023 538.052,-138.948 536.151,-138.797 C534.25,-138.646 532.462,-138.27 530.787,-137.668 C529.112,-137.065 527.719,-136.153 526.609,-134.929 C525.498,-133.706 524.943,-132.021 524.943,-129.875 C524.943,-128.596 525.197,-127.476 525.705,-126.516 C526.213,-125.556 526.891,-124.747 527.738,-124.088 C528.585,-123.429 529.554,-122.94 530.646,-122.62 C531.738,-122.3 532.867,-122.14 534.034,-122.14 C536.179,-122.14 537.996,-122.526 539.483,-123.297 C540.97,-124.069 542.259,-125.339 543.351,-127.109 L543.463,-127.109 C543.463,-126.393 543.492,-125.659 543.548,-124.907 C543.605,-124.154 543.689,-123.457 543.802,-122.817 L547.416,-122.817 C547.303,-123.533 547.2,-124.445 547.105,-125.556 C547.011,-126.666 546.964,-127.73 546.964,-128.746 L546.964,-140.547 C546.964,-142.166 546.701,-143.559 546.174,-144.726 C545.647,-145.893 544.95,-146.862 544.085,-147.634 C543.219,-148.406 542.193,-148.98 541.007,-149.356 C539.821,-149.732 538.589,-149.921 537.309,-149.921 C532.34,-149.921 528.613,-148.641 526.129,-146.081 L528.387,-143.427 C530.684,-145.498 533.375,-146.533 536.462,-146.533 C540.979,-146.533 543.238,-144.255 543.238,-139.7 L543.238,-139.023 L541.374,-139.023 Z M555.321,-149.243 C555.396,-148.264 555.462,-147.229 555.519,-146.137 C555.575,-145.046 555.604,-144.142 555.604,-143.427 L555.604,-122.817 L559.33,-122.817 L559.33,-136.369 C559.33,-138.778 559.707,-140.66 560.46,-142.016 C561.212,-143.371 562.069,-144.387 563.029,-145.065 C563.989,-145.742 564.901,-146.156 565.767,-146.307 C566.633,-146.457 567.16,-146.533 567.348,-146.533 C570.096,-146.533 571.978,-145.752 572.995,-144.189 C574.011,-142.627 574.519,-140.378 574.519,-137.442 L574.519,-122.817 L578.246,-122.817 L578.246,-139.588 C578.246,-142.9 577.437,-145.451 575.818,-147.239 C574.199,-149.027 571.696,-149.921 568.308,-149.921 C567.442,-149.921 566.567,-149.798 565.683,-149.554 C564.798,-149.309 563.96,-148.97 563.17,-148.537 C562.379,-148.104 561.664,-147.587 561.024,-146.984 C560.384,-146.382 559.857,-145.723 559.443,-145.008 L559.33,-145.008 C559.33,-145.723 559.321,-146.429 559.302,-147.126 C559.283,-147.822 559.236,-148.528 559.161,-149.243 L555.321,-149.243 Z M600.663,-149.243 L593.04,-149.243 L593.04,-156.697 L589.313,-156.697 L589.313,-149.243 L583.723,-149.243 L583.723,-145.855 L589.313,-145.855 L589.313,-129.198 C589.313,-127.73 589.52,-126.544 589.934,-125.641 C590.348,-124.737 590.875,-124.022 591.515,-123.495 C592.155,-122.968 592.861,-122.61 593.633,-122.422 C594.405,-122.234 595.148,-122.14 595.863,-122.14 C597.821,-122.14 599.496,-122.46 600.889,-123.1 L600.719,-126.544 C600.155,-126.243 599.534,-125.998 598.856,-125.81 C598.178,-125.622 597.52,-125.528 596.88,-125.528 C596.315,-125.528 595.797,-125.594 595.327,-125.725 C594.856,-125.857 594.452,-126.092 594.113,-126.431 C593.774,-126.77 593.511,-127.25 593.322,-127.871 C593.134,-128.492 593.04,-129.292 593.04,-130.271 L593.04,-145.855 L600.663,-145.855 L600.663,-149.243 Z M621.837,-122.817 L625.564,-122.817 L625.564,-137.724 C625.564,-138.628 625.724,-139.569 626.044,-140.547 C626.364,-141.526 626.863,-142.439 627.54,-143.286 C628.218,-144.133 629.065,-144.829 630.081,-145.375 C631.098,-145.921 632.321,-146.194 633.751,-146.194 C634.693,-146.194 635.408,-146.1 635.897,-145.912 L636.631,-149.582 C635.841,-149.808 634.918,-149.921 633.864,-149.921 C632.697,-149.921 631.653,-149.761 630.731,-149.441 C629.808,-149.121 628.999,-148.697 628.303,-148.17 C627.606,-147.643 627.013,-147.05 626.524,-146.392 C626.035,-145.733 625.658,-145.046 625.395,-144.331 L625.282,-144.331 L625.282,-149.243 L621.611,-149.243 C621.649,-147.323 621.696,-145.761 621.753,-144.556 C621.809,-143.352 621.837,-142.166 621.837,-140.999 L621.837,-122.817 Z M642.899,-138.063 C642.899,-139.155 643.153,-140.209 643.661,-141.225 C644.169,-142.241 644.847,-143.145 645.694,-143.935 C646.541,-144.726 647.529,-145.356 648.658,-145.827 C649.788,-146.297 650.955,-146.533 652.159,-146.533 C654.869,-146.533 656.978,-145.752 658.483,-144.189 C659.989,-142.627 660.742,-140.585 660.742,-138.063 L642.899,-138.063 Z M664.807,-135.014 L664.807,-136.708 C664.807,-138.515 664.525,-140.218 663.96,-141.818 C663.396,-143.418 662.577,-144.811 661.504,-145.996 C660.431,-147.182 659.104,-148.133 657.523,-148.848 C655.942,-149.563 654.154,-149.921 652.159,-149.921 C650.277,-149.921 648.527,-149.572 646.908,-148.876 C645.289,-148.18 643.878,-147.21 642.673,-145.968 C641.468,-144.726 640.527,-143.258 639.85,-141.564 C639.172,-139.87 638.833,-138.025 638.833,-136.03 C638.833,-134.035 639.182,-132.191 639.878,-130.497 C640.574,-128.803 641.525,-127.335 642.729,-126.092 C643.934,-124.85 645.374,-123.881 647.049,-123.184 C648.724,-122.488 650.54,-122.14 652.498,-122.14 C654.681,-122.14 656.723,-122.573 658.624,-123.438 C660.525,-124.304 662.266,-125.735 663.847,-127.73 L660.968,-130.101 C660.215,-128.897 659.114,-127.833 657.665,-126.911 C656.215,-125.989 654.493,-125.528 652.498,-125.528 C651.18,-125.528 649.957,-125.772 648.828,-126.262 C647.698,-126.751 646.701,-127.419 645.835,-128.266 C644.969,-129.113 644.273,-130.12 643.746,-131.287 C643.219,-132.454 642.899,-133.696 642.786,-135.014 L664.807,-135.014 Z M674.294,-136.369 C674.294,-137.762 674.548,-139.07 675.056,-140.293 C675.564,-141.517 676.26,-142.59 677.145,-143.512 C678.03,-144.434 679.065,-145.168 680.251,-145.714 C681.436,-146.26 682.726,-146.533 684.118,-146.533 C685.662,-146.533 687.055,-146.26 688.297,-145.714 C689.539,-145.168 690.593,-144.434 691.459,-143.512 C692.325,-142.59 692.984,-141.517 693.435,-140.293 C693.887,-139.07 694.113,-137.762 694.113,-136.369 C694.15,-134.826 693.915,-133.433 693.407,-132.191 C692.899,-130.948 692.174,-129.885 691.233,-129 C690.292,-128.116 689.21,-127.429 687.986,-126.939 C686.763,-126.45 685.474,-126.205 684.118,-126.205 C682.726,-126.205 681.436,-126.478 680.251,-127.024 C679.065,-127.57 678.03,-128.304 677.145,-129.226 C676.26,-130.148 675.564,-131.221 675.056,-132.445 C674.548,-133.668 674.294,-134.976 674.294,-136.369 Z M670.849,-114.573 C672.543,-112.767 674.425,-111.43 676.496,-110.564 C678.566,-109.699 680.919,-109.266 683.554,-109.266 C686.528,-109.266 688.937,-109.717 690.781,-110.621 C692.626,-111.524 694.066,-112.654 695.101,-114.009 C696.136,-115.364 696.833,-116.851 697.19,-118.47 C697.548,-120.088 697.727,-121.613 697.727,-123.043 L697.727,-149.243 L694,-149.243 L694,-144.839 L693.887,-144.839 C693.134,-145.855 692.325,-146.693 691.459,-147.351 C690.593,-148.01 689.718,-148.528 688.833,-148.904 C687.949,-149.281 687.064,-149.544 686.179,-149.695 C685.295,-149.845 684.457,-149.921 683.667,-149.921 C681.709,-149.921 679.912,-149.572 678.274,-148.876 C676.637,-148.18 675.225,-147.21 674.039,-145.968 C672.854,-144.726 671.922,-143.277 671.244,-141.62 C670.567,-139.964 670.228,-138.176 670.228,-136.256 C670.228,-134.336 670.586,-132.548 671.301,-130.892 C672.016,-129.236 672.995,-127.815 674.237,-126.629 C675.479,-125.443 676.938,-124.511 678.613,-123.834 C680.288,-123.156 682.086,-122.817 684.006,-122.817 C685.925,-122.817 687.751,-123.194 689.483,-123.947 C691.214,-124.7 692.682,-125.979 693.887,-127.786 L694,-127.786 L694,-123.043 C694,-121.613 693.821,-120.267 693.463,-119.006 C693.106,-117.745 692.522,-116.644 691.713,-115.703 C690.904,-114.762 689.84,-114.018 688.523,-113.472 C687.205,-112.926 685.605,-112.654 683.723,-112.654 C681.578,-112.654 679.629,-113.096 677.879,-113.981 C676.129,-114.865 674.708,-116.041 673.616,-117.51 L670.849,-114.573 Z M711.504,-159.407 C711.504,-160.197 711.222,-160.847 710.657,-161.355 C710.093,-161.863 709.471,-162.117 708.794,-162.117 C708.116,-162.117 707.495,-161.863 706.93,-161.355 C706.366,-160.847 706.083,-160.197 706.083,-159.407 C706.083,-158.616 706.366,-157.967 706.93,-157.459 C707.495,-156.951 708.116,-156.696 708.794,-156.696 C709.471,-156.696 710.093,-156.951 710.657,-157.459 C711.222,-157.967 711.504,-158.616 711.504,-159.407 Z M710.657,-149.243 L706.93,-149.243 L706.93,-122.817 L710.657,-122.817 L710.657,-149.243 Z M742.278,-136.03 C742.278,-134.562 742.042,-133.188 741.572,-131.908 C741.101,-130.628 740.433,-129.518 739.567,-128.577 C738.702,-127.636 737.657,-126.892 736.434,-126.346 C735.21,-125.801 733.827,-125.528 732.283,-125.528 C730.74,-125.528 729.357,-125.801 728.133,-126.346 C726.91,-126.892 725.875,-127.636 725.028,-128.577 C724.181,-129.518 723.522,-130.628 723.051,-131.908 C722.581,-133.188 722.345,-134.562 722.345,-136.03 C722.345,-137.498 722.581,-138.872 723.051,-140.152 C723.522,-141.432 724.181,-142.543 725.028,-143.484 C725.875,-144.425 726.91,-145.168 728.133,-145.714 C729.357,-146.26 730.74,-146.533 732.283,-146.533 C733.827,-146.533 735.21,-146.26 736.434,-145.714 C737.657,-145.168 738.702,-144.425 739.567,-143.484 C740.433,-142.543 741.101,-141.432 741.572,-140.152 C742.042,-138.872 742.278,-137.498 742.278,-136.03 Z M746.343,-136.03 C746.343,-138.025 745.995,-139.87 745.299,-141.564 C744.602,-143.258 743.633,-144.726 742.391,-145.968 C741.148,-147.21 739.671,-148.18 737.958,-148.876 C736.245,-149.572 734.354,-149.921 732.283,-149.921 C730.251,-149.921 728.378,-149.572 726.665,-148.876 C724.952,-148.18 723.475,-147.21 722.233,-145.968 C720.99,-144.726 720.021,-143.258 719.325,-141.564 C718.628,-139.87 718.28,-138.025 718.28,-136.03 C718.28,-134.035 718.628,-132.191 719.325,-130.497 C720.021,-128.803 720.99,-127.335 722.233,-126.092 C723.475,-124.85 724.952,-123.881 726.665,-123.184 C728.378,-122.488 730.251,-122.14 732.283,-122.14 C734.354,-122.14 736.245,-122.488 737.958,-123.184 C739.671,-123.881 741.148,-124.85 742.391,-126.092 C743.633,-127.335 744.602,-128.803 745.299,-130.497 C745.995,-132.191 746.343,-134.035 746.343,-136.03 Z M752.837,-149.243 C752.912,-148.264 752.978,-147.229 753.034,-146.137 C753.091,-145.046 753.119,-144.142 753.119,-143.427 L753.119,-122.817 L756.846,-122.817 L756.846,-136.369 C756.846,-138.778 757.222,-140.66 757.975,-142.016 C758.728,-143.371 759.584,-144.387 760.544,-145.065 C761.504,-145.742 762.417,-146.156 763.283,-146.307 C764.149,-146.457 764.676,-146.533 764.864,-146.533 C767.612,-146.533 769.494,-145.752 770.51,-144.189 C771.527,-142.627 772.035,-140.378 772.035,-137.442 L772.035,-122.817 L775.762,-122.817 L775.762,-139.588 C775.762,-142.9 774.952,-145.45 773.334,-147.239 C771.715,-149.027 769.212,-149.921 765.824,-149.921 C764.958,-149.921 764.083,-149.798 763.198,-149.554 C762.313,-149.309 761.476,-148.97 760.685,-148.537 C759.895,-148.104 759.18,-147.587 758.54,-146.984 C757.9,-146.382 757.373,-145.723 756.959,-145.008 L756.846,-145.008 C756.846,-145.723 756.836,-146.429 756.818,-147.126 C756.799,-147.822 756.752,-148.528 756.676,-149.243 L752.837,-149.243 Z " fill="#0d1402" fill-opacity="1.00" />			<path d="M-466.993,139.711 L-462.824,139.711 L-462.824,120.311 L-440.47,120.311 L-440.47,139.711 L-436.3,139.711 L-436.3,98.7098 L-440.47,98.7098 L-440.47,116.489 L-462.824,116.489 L-462.824,98.7098 L-466.993,98.7098 L-466.993,139.711 Z M-421.861,124.075 C-421.861,122.955 -421.6,121.874 -421.079,120.832 C-420.558,119.79 -419.863,118.863 -418.994,118.052 C-418.125,117.242 -417.112,116.595 -415.954,116.112 C-414.796,115.63 -413.599,115.388 -412.363,115.388 C-409.583,115.388 -407.421,116.189 -405.877,117.792 C-404.333,119.394 -403.561,121.488 -403.561,124.075 L-421.861,124.075 Z M-399.391,127.202 L-399.391,125.465 C-399.391,123.612 -399.681,121.865 -400.26,120.224 C-400.839,118.583 -401.679,117.155 -402.779,115.939 C-403.879,114.722 -405.24,113.748 -406.862,113.014 C-408.483,112.28 -410.317,111.914 -412.363,111.914 C-414.294,111.914 -416.089,112.271 -417.749,112.985 C-419.409,113.699 -420.857,114.693 -422.092,115.967 C-423.328,117.242 -424.293,118.747 -424.988,120.485 C-425.683,122.222 -426.03,124.114 -426.03,126.16 C-426.03,128.206 -425.673,130.098 -424.959,131.835 C-424.245,133.573 -423.27,135.078 -422.034,136.352 C-420.799,137.626 -419.322,138.621 -417.604,139.335 C-415.886,140.049 -414.023,140.406 -412.016,140.406 C-409.776,140.406 -407.682,139.962 -405.732,139.074 C-403.783,138.186 -401.997,136.719 -400.376,134.673 L-403.329,132.241 C-404.101,133.476 -405.23,134.567 -406.717,135.513 C-408.203,136.459 -409.97,136.931 -412.016,136.931 C-413.367,136.931 -414.622,136.681 -415.78,136.179 C-416.938,135.677 -417.961,134.991 -418.849,134.123 C-419.737,133.254 -420.452,132.221 -420.992,131.024 C-421.533,129.828 -421.861,128.554 -421.977,127.202 L-399.391,127.202 Z M-373.138,126.218 L-373.138,128.187 C-373.138,129.384 -373.302,130.513 -373.63,131.575 C-373.958,132.636 -374.47,133.563 -375.165,134.354 C-375.86,135.146 -376.719,135.773 -377.742,136.237 C-378.765,136.7 -379.971,136.931 -381.361,136.931 C-382.133,136.931 -382.896,136.845 -383.649,136.671 C-384.402,136.497 -385.087,136.208 -385.705,135.802 C-386.322,135.397 -386.815,134.876 -387.181,134.239 C-387.548,133.602 -387.731,132.839 -387.731,131.951 C-387.731,130.6 -387.259,129.538 -386.313,128.766 C-385.367,127.994 -384.228,127.424 -382.896,127.058 C-381.564,126.691 -380.174,126.459 -378.726,126.363 C-377.278,126.266 -376.072,126.218 -375.107,126.218 L-373.138,126.218 Z M-375.049,123.091 C-376.67,123.091 -378.456,123.168 -380.406,123.322 C-382.355,123.477 -384.189,123.863 -385.907,124.48 C-387.625,125.098 -389.054,126.034 -390.193,127.289 C-391.332,128.544 -391.901,130.272 -391.901,132.472 C-391.901,133.785 -391.641,134.934 -391.119,135.918 C-390.598,136.903 -389.903,137.733 -389.034,138.408 C-388.166,139.084 -387.172,139.586 -386.052,139.914 C-384.932,140.242 -383.774,140.406 -382.577,140.406 C-380.377,140.406 -378.514,140.01 -376.989,139.219 C-375.464,138.428 -374.142,137.124 -373.022,135.31 L-372.906,135.31 C-372.906,136.043 -372.877,136.796 -372.819,137.568 C-372.761,138.341 -372.674,139.055 -372.559,139.711 L-368.852,139.711 C-368.968,138.978 -369.074,138.041 -369.171,136.903 C-369.267,135.764 -369.316,134.673 -369.316,133.63 L-369.316,121.527 C-369.316,119.867 -369.586,118.438 -370.126,117.242 C-370.667,116.045 -371.381,115.051 -372.269,114.259 C-373.157,113.468 -374.209,112.879 -375.425,112.493 C-376.641,112.107 -377.906,111.914 -379.218,111.914 C-384.315,111.914 -388.137,113.226 -390.685,115.852 L-388.369,118.573 C-386.013,116.45 -383.253,115.388 -380.087,115.388 C-375.454,115.388 -373.138,117.724 -373.138,122.396 L-373.138,123.091 L-375.049,123.091 Z M-335.592,112.609 L-339.935,112.609 L-348.564,135.426 L-348.68,135.426 L-357.309,112.609 L-361.884,112.609 L-350.88,139.711 L-346.595,139.711 L-335.592,112.609 Z M-327.117,112.609 L-331.924,112.609 L-320.805,140.059 L-322.774,145.271 C-323.353,146.815 -324.029,148.012 -324.801,148.861 C-325.573,149.711 -326.635,150.135 -327.986,150.135 C-329.106,150.135 -330.071,149.923 -330.882,149.498 L-331.287,153.205 C-330.708,153.398 -330.119,153.513 -329.521,153.552 C-328.922,153.591 -328.333,153.61 -327.754,153.61 C-325.399,153.61 -323.594,152.992 -322.34,151.757 C-321.085,150.521 -320.052,148.861 -319.241,146.776 L-305.69,112.609 L-310.323,112.609 L-318.604,135.02 L-327.117,112.609 Z M-257.932,116.604 C-259.284,115.022 -260.809,113.854 -262.507,113.101 C-264.206,112.348 -265.982,111.952 -267.835,111.914 C-270.036,111.875 -272.024,112.213 -273.8,112.927 C-275.576,113.641 -277.091,114.636 -278.346,115.91 C-279.601,117.184 -280.556,118.699 -281.213,120.456 C-281.869,122.212 -282.197,124.114 -282.197,126.16 C-282.197,128.206 -281.869,130.108 -281.213,131.864 C-280.556,133.621 -279.601,135.136 -278.346,136.41 C-277.091,137.684 -275.576,138.678 -273.8,139.393 C-272.024,140.107 -270.036,140.445 -267.835,140.406 C-265.982,140.368 -264.206,139.972 -262.507,139.219 C-260.809,138.466 -259.284,137.298 -257.932,135.715 L-261.06,133.341 C-261.716,134.345 -262.633,135.194 -263.81,135.889 C-264.988,136.584 -266.329,136.931 -267.835,136.931 C-269.418,136.97 -270.837,136.719 -272.092,136.179 C-273.346,135.638 -274.418,134.885 -275.306,133.92 C-276.194,132.955 -276.869,131.806 -277.333,130.474 C-277.796,129.142 -278.028,127.704 -278.028,126.16 C-278.028,124.616 -277.796,123.177 -277.333,121.845 C-276.869,120.514 -276.194,119.365 -275.306,118.4 C-274.418,117.435 -273.346,116.682 -272.092,116.141 C-270.837,115.601 -269.418,115.35 -267.835,115.388 C-266.329,115.388 -264.988,115.736 -263.81,116.431 C-262.633,117.126 -261.716,117.975 -261.06,118.979 L-257.932,116.604 Z M-250.964,139.711 L-247.141,139.711 L-247.141,125.812 C-247.141,123.342 -246.755,121.411 -245.983,120.021 C-245.211,118.631 -244.333,117.589 -243.348,116.894 C-242.364,116.199 -241.427,115.774 -240.54,115.62 C-239.652,115.466 -239.111,115.388 -238.918,115.388 C-236.1,115.388 -234.169,116.189 -233.127,117.792 C-232.084,119.394 -231.563,121.701 -231.563,124.712 L-231.563,139.711 L-227.741,139.711 L-227.741,122.511 C-227.741,119.114 -228.571,116.498 -230.231,114.664 C-231.891,112.831 -234.459,111.914 -237.933,111.914 C-238.821,111.914 -239.719,112.039 -240.626,112.29 C-241.534,112.541 -242.393,112.889 -243.203,113.332 C-244.014,113.776 -244.748,114.307 -245.404,114.925 C-246.06,115.543 -246.601,116.218 -247.026,116.952 L-247.141,116.952 L-247.141,95.9301 L-250.964,95.9301 L-250.964,139.711 Z M-199.461,126.218 L-199.461,128.187 C-199.461,129.384 -199.625,130.513 -199.953,131.575 C-200.281,132.636 -200.793,133.563 -201.488,134.354 C-202.183,135.146 -203.042,135.773 -204.065,136.237 C-205.088,136.7 -206.294,136.931 -207.684,136.931 C-208.456,136.931 -209.219,136.845 -209.972,136.671 C-210.725,136.497 -211.41,136.208 -212.028,135.802 C-212.645,135.397 -213.138,134.876 -213.504,134.239 C-213.871,133.602 -214.055,132.839 -214.055,131.951 C-214.055,130.6 -213.582,129.538 -212.636,128.766 C-211.69,127.994 -210.551,127.424 -209.219,127.058 C-207.887,126.691 -206.497,126.459 -205.049,126.363 C-203.602,126.266 -202.395,126.218 -201.43,126.218 L-199.461,126.218 Z M-201.372,123.091 C-202.994,123.091 -204.779,123.168 -206.729,123.322 C-208.678,123.477 -210.512,123.863 -212.23,124.48 C-213.948,125.098 -215.377,126.034 -216.516,127.289 C-217.655,128.544 -218.224,130.272 -218.224,132.472 C-218.224,133.785 -217.964,134.934 -217.442,135.918 C-216.921,136.903 -216.226,137.733 -215.358,138.408 C-214.489,139.084 -213.495,139.586 -212.375,139.914 C-211.256,140.242 -210.097,140.406 -208.9,140.406 C-206.7,140.406 -204.837,140.01 -203.312,139.219 C-201.787,138.428 -200.465,137.125 -199.345,135.31 L-199.229,135.31 C-199.229,136.043 -199.2,136.796 -199.142,137.568 C-199.084,138.341 -198.998,139.055 -198.882,139.711 L-195.175,139.711 C-195.291,138.978 -195.397,138.041 -195.494,136.903 C-195.59,135.764 -195.639,134.673 -195.639,133.631 L-195.639,121.527 C-195.639,119.867 -195.909,118.438 -196.449,117.242 C-196.99,116.045 -197.704,115.051 -198.592,114.259 C-199.48,113.468 -200.532,112.879 -201.748,112.493 C-202.965,112.107 -204.229,111.914 -205.542,111.914 C-210.638,111.914 -214.46,113.226 -217.008,115.852 L-214.692,118.573 C-212.337,116.45 -209.576,115.388 -206.41,115.388 C-201.777,115.388 -199.461,117.724 -199.461,122.396 L-199.461,123.091 L-201.372,123.091 Z M-179.288,102.185 C-179.288,101.374 -179.578,100.708 -180.157,100.187 C-180.736,99.6654 -181.373,99.4048 -182.068,99.4048 C-182.763,99.4048 -183.4,99.6654 -183.979,100.187 C-184.558,100.708 -184.848,101.374 -184.848,102.185 C-184.848,102.995 -184.558,103.661 -183.979,104.182 C-183.4,104.704 -182.763,104.964 -182.068,104.964 C-181.373,104.964 -180.736,104.704 -180.157,104.182 C-179.578,103.661 -179.288,102.995 -179.288,102.185 Z M-180.157,112.609 L-183.979,112.609 L-183.979,139.711 L-180.157,139.711 L-180.157,112.609 Z M-169.308,112.609 C-169.231,113.612 -169.163,114.674 -169.106,115.794 C-169.048,116.913 -169.019,117.84 -169.019,118.573 L-169.019,139.711 L-165.197,139.711 L-165.197,125.812 C-165.197,123.342 -164.81,121.411 -164.038,120.021 C-163.266,118.631 -162.388,117.589 -161.403,116.894 C-160.419,116.199 -159.483,115.774 -158.595,115.62 C-157.707,115.466 -157.166,115.388 -156.973,115.388 C-154.155,115.388 -152.224,116.189 -151.182,117.792 C-150.14,119.394 -149.618,121.701 -149.618,124.712 L-149.618,139.711 L-145.796,139.711 L-145.796,122.511 C-145.796,119.114 -146.626,116.498 -148.286,114.664 C-149.946,112.831 -152.514,111.914 -155.989,111.914 C-156.877,111.914 -157.774,112.039 -158.681,112.29 C-159.589,112.541 -160.448,112.889 -161.259,113.332 C-162.069,113.776 -162.803,114.307 -163.459,114.925 C-164.116,115.543 -164.656,116.218 -165.081,116.952 L-165.197,116.952 C-165.197,116.218 -165.206,115.495 -165.225,114.78 C-165.245,114.066 -165.293,113.342 -165.37,112.609 L-169.308,112.609 Z " fill="#6c5871" fill-opacity="1.00" stroke-width="2.73" stroke="#6c5871" stroke-linecap="square" stroke-linejoin="miter" />			<path d="M436.457,-423.455 L432.318,-423.455 L432.318,-382.752 L455.429,-382.752 L455.429,-386.546 L436.457,-386.546 L436.457,-423.455 Z M465.202,-420.006 C465.202,-420.811 464.915,-421.472 464.34,-421.989 C463.765,-422.507 463.133,-422.765 462.443,-422.765 C461.753,-422.765 461.121,-422.507 460.546,-421.989 C459.971,-421.472 459.683,-420.811 459.683,-420.006 C459.683,-419.201 459.971,-418.54 460.546,-418.023 C461.121,-417.505 461.753,-417.246 462.443,-417.246 C463.133,-417.246 463.765,-417.505 464.34,-418.023 C464.915,-418.54 465.202,-419.201 465.202,-420.006 Z M464.34,-409.658 L460.546,-409.658 L460.546,-382.752 L464.34,-382.752 L464.34,-409.658 Z M476.241,-396.55 C476.241,-397.968 476.499,-399.3 477.017,-400.545 C477.534,-401.791 478.243,-402.883 479.144,-403.822 C480.045,-404.761 481.099,-405.509 482.306,-406.064 C483.513,-406.62 484.826,-406.898 486.244,-406.898 C487.816,-406.898 489.234,-406.62 490.498,-406.064 C491.763,-405.509 492.836,-404.761 493.718,-403.822 C494.599,-402.883 495.27,-401.791 495.73,-400.545 C496.19,-399.3 496.42,-397.968 496.42,-396.55 C496.458,-394.978 496.219,-393.56 495.701,-392.295 C495.184,-391.031 494.446,-389.948 493.488,-389.047 C492.53,-388.146 491.428,-387.447 490.182,-386.949 C488.937,-386.45 487.624,-386.201 486.244,-386.201 C484.826,-386.201 483.513,-386.479 482.306,-387.035 C481.099,-387.591 480.045,-388.338 479.144,-389.277 C478.243,-390.216 477.534,-391.308 477.017,-392.554 C476.499,-393.8 476.241,-395.132 476.241,-396.55 Z M472.734,-374.358 C474.458,-372.518 476.375,-371.158 478.483,-370.276 C480.591,-369.395 482.986,-368.954 485.669,-368.954 C488.697,-368.954 491.15,-369.414 493.028,-370.334 C494.906,-371.254 496.372,-372.404 497.426,-373.783 C498.48,-375.163 499.189,-376.677 499.553,-378.325 C499.917,-379.973 500.099,-381.525 500.099,-382.982 L500.099,-409.658 L496.305,-409.658 L496.305,-405.173 L496.19,-405.173 C495.423,-406.208 494.599,-407.061 493.718,-407.732 C492.836,-408.402 491.945,-408.929 491.045,-409.313 C490.144,-409.696 489.243,-409.964 488.343,-410.118 C487.442,-410.271 486.589,-410.347 485.784,-410.347 C483.791,-410.347 481.961,-409.993 480.294,-409.284 C478.627,-408.575 477.189,-407.588 475.982,-406.323 C474.775,-405.058 473.826,-403.583 473.136,-401.896 C472.446,-400.21 472.101,-398.389 472.101,-396.435 C472.101,-394.48 472.465,-392.659 473.194,-390.973 C473.922,-389.287 474.918,-387.84 476.183,-386.632 C477.448,-385.425 478.933,-384.477 480.639,-383.787 C482.344,-383.097 484.174,-382.752 486.129,-382.752 C488.084,-382.752 489.943,-383.135 491.706,-383.902 C493.469,-384.668 494.964,-385.971 496.19,-387.811 L496.305,-387.811 L496.305,-382.982 C496.305,-381.525 496.123,-380.155 495.759,-378.871 C495.395,-377.587 494.801,-376.466 493.977,-375.508 C493.153,-374.55 492.07,-373.793 490.728,-373.237 C489.387,-372.681 487.758,-372.404 485.842,-372.404 C483.657,-372.404 481.674,-372.854 479.891,-373.755 C478.109,-374.655 476.662,-375.853 475.551,-377.348 L472.734,-374.358 Z M508.608,-382.752 L512.402,-382.752 L512.402,-396.55 C512.402,-399.003 512.786,-400.919 513.552,-402.299 C514.319,-403.679 515.191,-404.713 516.168,-405.403 C517.145,-406.093 518.075,-406.515 518.956,-406.668 C519.838,-406.821 520.374,-406.898 520.566,-406.898 C523.364,-406.898 525.28,-406.103 526.315,-404.512 C527.35,-402.922 527.867,-400.632 527.867,-397.642 L527.867,-382.752 L531.662,-382.752 L531.662,-399.827 C531.662,-403.199 530.838,-405.796 529.19,-407.617 C527.542,-409.437 524.993,-410.347 521.543,-410.347 C520.662,-410.347 519.771,-410.223 518.87,-409.974 C517.969,-409.725 517.117,-409.38 516.312,-408.939 C515.507,-408.498 514.779,-407.971 514.127,-407.358 C513.476,-406.745 512.939,-406.074 512.517,-405.346 L512.402,-405.346 L512.402,-426.215 L508.608,-426.215 L508.608,-382.752 Z M554.486,-409.658 L546.724,-409.658 L546.724,-417.246 L542.93,-417.246 L542.93,-409.658 L537.238,-409.658 L537.238,-406.208 L542.93,-406.208 L542.93,-389.248 C542.93,-387.754 543.141,-386.546 543.562,-385.626 C543.984,-384.707 544.521,-383.978 545.172,-383.442 C545.824,-382.905 546.542,-382.541 547.328,-382.349 C548.114,-382.158 548.871,-382.062 549.599,-382.062 C551.592,-382.062 553.298,-382.388 554.716,-383.039 L554.543,-386.546 C553.968,-386.24 553.336,-385.991 552.646,-385.799 C551.956,-385.607 551.285,-385.511 550.634,-385.511 C550.059,-385.511 549.532,-385.578 549.053,-385.713 C548.574,-385.847 548.162,-386.086 547.817,-386.431 C547.472,-386.776 547.204,-387.265 547.012,-387.897 C546.82,-388.53 546.724,-389.344 546.724,-390.341 L546.724,-406.208 L554.486,-406.208 L554.486,-409.658 Z M598.351,-405.691 C597.01,-407.262 595.496,-408.422 593.809,-409.169 C592.123,-409.916 590.36,-410.309 588.52,-410.347 C586.336,-410.386 584.362,-410.05 582.599,-409.341 C580.836,-408.632 579.331,-407.645 578.086,-406.381 C576.84,-405.116 575.891,-403.611 575.24,-401.868 C574.588,-400.124 574.263,-398.236 574.263,-396.205 C574.263,-394.173 574.588,-392.286 575.24,-390.542 C575.891,-388.798 576.84,-387.294 578.086,-386.029 C579.331,-384.764 580.836,-383.777 582.599,-383.068 C584.362,-382.359 586.336,-382.024 588.52,-382.062 C590.36,-382.1 592.123,-382.493 593.809,-383.241 C595.496,-383.988 597.01,-385.147 598.351,-386.719 L595.247,-389.076 C594.595,-388.079 593.685,-387.236 592.516,-386.546 C591.347,-385.856 590.015,-385.511 588.52,-385.511 C586.949,-385.473 585.54,-385.722 584.295,-386.259 C583.049,-386.795 581.986,-387.543 581.104,-388.501 C580.222,-389.459 579.552,-390.599 579.092,-391.922 C578.632,-393.244 578.402,-394.672 578.402,-396.205 C578.402,-397.738 578.632,-399.166 579.092,-400.488 C579.552,-401.81 580.222,-402.95 581.104,-403.908 C581.986,-404.867 583.049,-405.614 584.295,-406.151 C585.54,-406.687 586.949,-406.936 588.52,-406.898 C590.015,-406.898 591.347,-406.553 592.516,-405.863 C593.685,-405.173 594.595,-404.33 595.247,-403.334 L598.351,-405.691 Z M603.353,-382.752 L607.147,-382.752 L607.147,-396.55 C607.147,-399.003 607.531,-400.919 608.297,-402.299 C609.064,-403.679 609.936,-404.713 610.913,-405.403 C611.89,-406.093 612.82,-406.515 613.701,-406.668 C614.583,-406.821 615.119,-406.898 615.311,-406.898 C618.109,-406.898 620.025,-406.103 621.06,-404.512 C622.095,-402.922 622.612,-400.632 622.612,-397.642 L622.612,-382.752 L626.407,-382.752 L626.407,-399.827 C626.407,-403.199 625.583,-405.796 623.935,-407.617 C622.287,-409.437 619.738,-410.347 616.288,-410.347 C615.407,-410.347 614.516,-410.223 613.615,-409.974 C612.714,-409.725 611.862,-409.38 611.057,-408.939 C610.252,-408.498 609.524,-407.971 608.872,-407.358 C608.221,-406.745 607.684,-406.074 607.262,-405.346 L607.147,-405.346 L607.147,-426.215 L603.353,-426.215 L603.353,-382.752 Z M652.565,-396.147 L652.565,-394.193 C652.565,-393.004 652.402,-391.883 652.076,-390.829 C651.751,-389.775 651.243,-388.855 650.553,-388.07 C649.863,-387.284 649.01,-386.661 647.995,-386.201 C646.979,-385.741 645.781,-385.511 644.401,-385.511 C643.635,-385.511 642.878,-385.598 642.131,-385.77 C641.383,-385.943 640.703,-386.23 640.09,-386.632 C639.476,-387.035 638.988,-387.552 638.624,-388.185 C638.259,-388.817 638.077,-389.574 638.077,-390.456 C638.077,-391.797 638.547,-392.851 639.486,-393.618 C640.425,-394.384 641.556,-394.95 642.878,-395.314 C644.2,-395.678 645.58,-395.908 647.017,-396.004 C648.455,-396.099 649.652,-396.147 650.61,-396.147 L652.565,-396.147 Z M650.668,-399.252 C649.058,-399.252 647.286,-399.175 645.35,-399.022 C643.415,-398.868 641.594,-398.485 639.888,-397.872 C638.183,-397.259 636.765,-396.329 635.634,-395.084 C634.503,-393.838 633.938,-392.123 633.938,-389.938 C633.938,-388.635 634.197,-387.495 634.714,-386.518 C635.232,-385.54 635.922,-384.716 636.784,-384.045 C637.646,-383.375 638.633,-382.876 639.745,-382.551 C640.856,-382.225 642.006,-382.062 643.194,-382.062 C645.379,-382.062 647.228,-382.455 648.742,-383.241 C650.256,-384.026 651.569,-385.32 652.68,-387.121 L652.795,-387.121 C652.795,-386.393 652.824,-385.646 652.881,-384.879 C652.939,-384.112 653.025,-383.403 653.14,-382.752 L656.819,-382.752 C656.704,-383.48 656.599,-384.41 656.503,-385.54 C656.407,-386.671 656.36,-387.754 656.36,-388.788 L656.36,-400.804 C656.36,-402.452 656.091,-403.87 655.555,-405.058 C655.018,-406.246 654.309,-407.233 653.427,-408.019 C652.546,-408.805 651.502,-409.389 650.294,-409.773 C649.087,-410.156 647.832,-410.347 646.529,-410.347 C641.469,-410.347 637.675,-409.044 635.145,-406.438 L637.445,-403.736 C639.783,-405.844 642.523,-406.898 645.666,-406.898 C650.265,-406.898 652.565,-404.579 652.565,-399.942 L652.565,-399.252 L650.668,-399.252 Z M670.675,-420.006 C670.675,-420.811 670.387,-421.472 669.812,-421.989 C669.237,-422.507 668.605,-422.765 667.915,-422.765 C667.225,-422.765 666.593,-422.507 666.018,-421.989 C665.443,-421.472 665.156,-420.811 665.156,-420.006 C665.156,-419.201 665.443,-418.54 666.018,-418.022 C666.593,-417.505 667.225,-417.246 667.915,-417.246 C668.605,-417.246 669.237,-417.505 669.812,-418.022 C670.387,-418.54 670.675,-419.201 670.675,-420.006 Z M669.812,-409.658 L666.018,-409.658 L666.018,-382.752 L669.812,-382.752 L669.812,-409.658 Z M678.666,-409.658 C678.743,-408.661 678.81,-407.607 678.867,-406.496 C678.925,-405.384 678.953,-404.464 678.953,-403.736 L678.953,-382.752 L682.748,-382.752 L682.748,-396.55 C682.748,-399.003 683.131,-400.919 683.898,-402.299 C684.664,-403.679 685.536,-404.713 686.513,-405.403 C687.491,-406.093 688.42,-406.515 689.302,-406.668 C690.183,-406.821 690.72,-406.898 690.912,-406.898 C693.709,-406.898 695.626,-406.103 696.661,-404.512 C697.695,-402.922 698.213,-400.632 698.213,-397.642 L698.213,-382.752 L702.007,-382.752 L702.007,-399.827 C702.007,-403.199 701.183,-405.796 699.535,-407.617 C697.887,-409.437 695.338,-410.347 691.889,-410.347 C691.007,-410.347 690.116,-410.223 689.216,-409.974 C688.315,-409.725 687.462,-409.38 686.657,-408.939 C685.852,-408.498 685.124,-407.971 684.473,-407.358 C683.821,-406.745 683.284,-406.074 682.863,-405.346 L682.748,-405.346 C682.748,-406.074 682.738,-406.793 682.719,-407.502 C682.7,-408.211 682.652,-408.929 682.575,-409.658 L678.666,-409.658 Z " fill="#c6494f" fill-opacity="1.00" stroke-width="1.74" stroke="#c6494f" stroke-linecap="square" stroke-linejoin="miter" />			<path d="M-140.996,94.5637 L-142.017,92.7964 L18.7114,9.9476e-14 L19.7317,1.76724 L-140.996,94.5637 Z " fill="#6c5871" fill-opacity="1.00" />			<path d="M498.656,-451.794 L497.213,-450.351 L365.979,-581.585 L367.422,-583.028 L498.656,-451.794 Z " fill="#c6494f" fill-opacity="1.00" />			<g>				<path d="M-367.294,-371.735 L-373.813,-371.735 L-373.813,-677.206 L-367.294,-677.206 L-367.294,-371.735 Z " fill="#0d1402" fill-opacity="1.00" />				<path d="M-370.554,-371.735 L-370.554,-378.139 L-300.794,-378.139 L-300.794,-371.735 L-370.554,-371.735 Z " fill="#0d1402" fill-opacity="1.00" />				<path d="M-373.813,-670.803 L-373.813,-677.206 L-304.053,-677.206 L-304.053,-670.803 L-373.813,-670.803 Z " fill="#0d1402" fill-opacity="1.00" />			</g>			<g>				<path d="M300.239,110.322 L310.188,110.322 L310.188,-355.957 L300.239,-355.957 L300.239,110.322 Z " fill="#0d1402" fill-opacity="1.00" />				<path d="M305.213,110.322 L305.213,100.548 L198.731,100.548 L198.731,110.322 L305.213,110.322 Z " fill="#0d1402" fill-opacity="1.00" />				<path d="M310.188,-346.182 L310.188,-355.957 L203.706,-355.957 L203.706,-346.182 L310.188,-346.182 Z " fill="#0d1402" fill-opacity="1.00" />			</g>			<path d="M-619.114,217.215 L822.545,217.215 L822.545,204.727 L-619.114,204.727 L-619.114,217.215 Z " fill="#016563" fill-opacity="1.00" />		</g>	</svg>