<?xml version="1.0" encoding="UTF-8" standalone="no"?>
<!-- Generator: Assembly 2.2 - http://assemblyapp.co -->

<svg
   xmlns:dc="http://purl.org/dc/elements/1.1/"
   xmlns:cc="http://creativecommons.org/ns#"
   xmlns:rdf="http://www.w3.org/1999/02/22-rdf-syntax-ns#"
   xmlns:svg="http://www.w3.org/2000/svg"
   xmlns="http://www.w3.org/2000/svg"
   xmlns:sodipodi="http://sodipodi.sourceforge.net/DTD/sodipodi-0.dtd"
   xmlns:inkscape="http://www.inkscape.org/namespaces/inkscape"
   version="1.1"
   width="2048.00"
   height="2048.00"
   viewBox="0 0 2048.0 2048.0"
   id="svg315"
   sodipodi:docname="pipline_Francais.svg"
   inkscape:version="0.92.2 (5c3e80d, 2017-08-06)">
  <metadata
     id="metadata321">
    <rdf:RDF>
      <cc:Work
         rdf:about="">
        <dc:format>image/svg+xml</dc:format>
        <dc:type
           rdf:resource="http://purl.org/dc/dcmitype/StillImage" />
      </cc:Work>
    </rdf:RDF>
  </metadata>
  <defs
     id="defs319" />
  <sodipodi:namedview
     pagecolor="#ffffff"
     bordercolor="#666666"
     borderopacity="1"
     objecttolerance="10"
     gridtolerance="10"
     guidetolerance="10"
     inkscape:pageopacity="0"
     inkscape:pageshadow="2"
     inkscape:window-width="1920"
     inkscape:window-height="960"
     id="namedview317"
     showgrid="false"
     inkscape:zoom="0.65186406"
     inkscape:cx="1074.54"
     inkscape:cy="897.84013"
     inkscape:window-x="0"
     inkscape:window-y="27"
     inkscape:window-maximized="1"
     inkscape:current-layer="svg315" />
  <g
     id="g14"
     transform="translate(1024,1024)">
    <path
       style="fill:#edd9db;fill-opacity:1"
       inkscape:connector-curvature="0"
       id="path4"
       d="m -184.832,122.02 c 0,-55.4834 -44.979,-100.4619 -100.462,-100.4619 -55.484,0 -100.463,44.9785 -100.463,100.4619 0,55.484 44.979,100.463 100.463,100.463 55.483,0 100.462,-44.979 100.462,-100.463 z" />
    <path
       style="fill:#a68131;fill-opacity:1"
       inkscape:connector-curvature="0"
       id="path6"
       d="m -275.323,53.8951 c -9.535,5.5054 -12.803,17.6985 -7.297,27.2341 5.505,9.5357 17.698,12.8028 27.234,7.2974 9.536,-5.5054 12.803,-17.6985 7.297,-27.2341 -5.505,-9.5357 -17.698,-12.8028 -27.234,-7.2974 z" />
    <path
       style="fill:#a91d2c;fill-opacity:1"
       inkscape:connector-curvature="0"
       id="path8"
       d="m -304.219,204.371 c 23.508,0 42.565,-19.057 42.565,-42.565 0,-23.507 -19.057,-42.564 -42.565,-42.564 -23.508,0 -42.564,19.057 -42.564,42.564 0,23.508 19.056,42.565 42.564,42.565 z" />
    <path
       style="fill:#6f6d82;fill-opacity:1"
       inkscape:connector-curvature="0"
       id="path10"
       d="m -338.508,111.034 c 11.009,0 19.934,-8.924 19.934,-19.933 0,-11.009 -8.925,-19.9335 -19.934,-19.9335 -11.009,0 -19.933,8.9245 -19.933,19.9335 0,11.009 8.924,19.933 19.933,19.933 z" />
    <path
       style="fill:#9c9c9c;fill-opacity:1"
       inkscape:connector-curvature="0"
       id="path12"
       d="m -208.476,150.443 c 6.273,-10.866 2.55,-24.76 -8.316,-31.034 -10.866,-6.274 -24.761,-2.551 -31.034,8.316 -6.274,10.866 -2.551,24.76 8.315,31.034 10.867,6.273 24.761,2.55 31.035,-8.316 z" />
  </g>
  <g
     id="g42"
     transform="translate(1024,1024)">
    <path
       style="fill:none;stroke:#030303;stroke-width:0.77999997;stroke-linecap:square;stroke-linejoin:miter"
       inkscape:connector-curvature="0"
       id="path16"
       d="m 255.073,142.013 v 19.529" />
    <path
       style="fill:#9c9c9c;fill-opacity:1"
       inkscape:connector-curvature="0"
       id="path18"
       d="m 239.27,179.134 c 5.104,8.84 16.408,11.869 25.249,6.765 8.84,-5.104 11.869,-16.408 6.765,-25.248 -5.104,-8.841 -16.408,-11.87 -25.248,-6.766 -8.841,5.104 -11.87,16.408 -6.766,25.249 z" />
    <path
       style="fill:none;stroke:#030303;stroke-width:0.77999997;stroke-linecap:square;stroke-linejoin:miter"
       inkscape:connector-curvature="0"
       id="path20"
       d="m 279.369,122.303 v 19.42" />
    <path
       style="fill:none;stroke:#030303;stroke-width:0.77999997;stroke-linecap:square;stroke-linejoin:miter"
       inkscape:connector-curvature="0"
       id="path22"
       d="M 323.521,16.992 V 35.3473" />
    <path
       style="fill:none;stroke:#030303;stroke-width:0.77999997;stroke-linecap:square;stroke-linejoin:miter"
       inkscape:connector-curvature="0"
       id="path24"
       d="m 281.003,35.7052 v 18.538" />
    <path
       style="fill:#a91d2c;fill-opacity:1"
       inkscape:connector-curvature="0"
       id="path26"
       d="m 279.369,122.959 c 19.125,0 34.629,-15.504 34.629,-34.6286 0,-19.1249 -15.504,-34.6288 -34.629,-34.6288 -19.125,0 -34.629,15.5039 -34.629,34.6288 0,19.1246 15.504,34.6286 34.629,34.6286 z" />
    <path
       style="fill:none;stroke:#030303;stroke-width:0.77999997;stroke-linecap:square;stroke-linejoin:miter"
       inkscape:connector-curvature="0"
       id="path28"
       d="M 365.262,36.4721 V 96.0663" />
    <path
       style="fill:#a68131;fill-opacity:1"
       inkscape:connector-curvature="0"
       id="path30"
       d="m 357.152,97.0407 c -7.758,4.4793 -10.416,14.3993 -5.937,22.1563 4.479,7.758 14.399,10.416 22.157,5.937 7.758,-4.479 10.416,-14.399 5.937,-22.156 -4.479,-7.7583 -14.399,-10.4163 -22.157,-5.9373 z" />
    <path
       style="fill:none;stroke:#030303;stroke-width:0.77999997;stroke-linecap:square;stroke-linejoin:miter"
       inkscape:connector-curvature="0"
       id="path32"
       d="m 303.665,142.682 v 22.574" />
    <path
       style="fill:#6f6d82;fill-opacity:1"
       inkscape:connector-curvature="0"
       id="path34"
       d="m 287.658,191.68 c 5.104,8.84 16.408,11.869 25.248,6.765 8.841,-5.104 11.87,-16.408 6.766,-25.248 -5.104,-8.84 -16.408,-11.869 -25.249,-6.765 -8.84,5.104 -11.869,16.408 -6.765,25.248 z" />
    <path
       style="fill:none;stroke:#030303;stroke-width:0.77999997;stroke-linecap:square;stroke-linejoin:miter"
       inkscape:connector-curvature="0"
       id="path36"
       d="M 303.665,142.013 H 255.073" />
    <path
       style="fill:none;stroke:#030303;stroke-width:0.77999997;stroke-linecap:square;stroke-linejoin:miter"
       inkscape:connector-curvature="0"
       id="path38"
       d="M 365.262,35.6963 H 281.779" />
    <path
       style="fill:#030303;fill-opacity:1"
       inkscape:connector-curvature="0"
       id="path40"
       d="m 329.74,2.8019 -1.264,1.07653 0.29,0.35257 1.264,-1.07653 z m -1.052,-0.99639 -1.068,1.26657 0.346,0.29878 1.068,-1.26657 z m -1.2,-0.80249 -0.839,1.43782 0.392,0.22873 0.839,-1.43782 z m -1.33,-0.576093 -0.587,1.574053 0.455,0.1493 0.57,-1.564668 z M 324.741,0.0747158 324.453,1.71495 324.912,1.79672 325.2,0.156482 Z M 323.29,0.00202129 323.298,1.66655 323.752,1.66453 323.744,0 Z m -1.445,0.16241471 0.292,1.630674 0.449,-0.08581 -0.292,-1.6306734 z m -1.404,0.420647 0.556,1.564307 0.428,-0.16021 -0.556,-1.564309 z m -1.273,0.648217 -0.016,0.00938 0.835,1.44666 0.39,-0.22523 -0.835,-1.44666 z m -1.167,0.8689 1.077,1.264 0.352,-0.29025 -1.076,-1.264 z m -0.996,1.05207 1.266,1.06759 0.299,-0.34588 -1.267,-1.0676 z m -0.803,1.20019 1.438,0.83869 0.229,-0.39214 -1.438,-0.83868 z m -0.576,1.32956 1.565,0.57039 0.158,-0.43838 -1.564,-0.57039 z m -0.352,1.41703 1.64,0.28836 0.082,-0.45899 -1.64,-0.28836 z m -0.073,1.45071 1.665,-0.00742 -0.002,-0.45396 -1.665,0.00741 z m 0.163,1.445 1.63,-0.29129 -0.086,-0.44893 -1.63,0.29128 z m 0.42,1.40424 1.564,-0.5564 -0.16,-0.4276 -1.564,0.5564 z m 0.648,1.2729 0.01,0.0163 1.446,-0.8353 -0.225,-0.3901 -1.446,0.8353 z m 0.869,1.1672 1.264,-1.0766 -0.29,-0.3525 -1.264,1.0765 z m 1.052,0.9964 1.068,-1.2666 -0.346,-0.2988 -1.068,1.2666 z m 1.201,0.8024 0.838,-1.4378 -0.392,-0.2287 -0.839,1.4378 z m 1.329,0.5761 0.571,-1.5646 -0.439,-0.1587 -0.57,1.5647 z m 1.417,0.3522 0.289,-1.6402 -0.459,-0.0818 -0.289,1.6403 z m 1.451,0.0727 -0.008,-1.6645 -0.454,0.002 0.008,1.6646 z m 1.445,-0.1624 -0.291,-1.6306 -0.449,0.0858 0.291,1.6306 z m 1.404,-0.4206 -0.556,-1.5643 -0.428,0.1602 0.556,1.5643 z m 1.273,-0.6482 0.016,-0.0094 -0.835,-1.4467 -0.39,0.2253 0.835,1.4466 z m 1.167,-0.8689 -1.076,-1.264 -0.353,0.2902 1.077,1.264 z m 0.997,-1.0521 -1.267,-1.0676 -0.299,0.3459 1.267,1.0676 z m 0.802,-1.2002 -1.438,-0.8387 -0.228,0.3922 1.437,0.8386 z m 0.576,-1.3296 -1.565,-0.5703 -0.158,0.4383 1.564,0.5704 z m 0.352,-1.41699 -1.64,-0.28836 -0.082,0.459 1.641,0.28835 z m 0.073,-1.4507 -1.664,0.00741 0.002,0.45396 1.664,-0.00741 z m -0.162,-1.445 -1.631,0.29128 0.086,0.44893 1.63,-0.29128 z m -0.421,-1.40428 -1.564,0.55639 0.16,0.42765 1.564,-0.55639 z m -0.648,-1.27289 -0.01,-0.01625 -1.446,0.83523 0.225,0.39011 1.447,-0.83523 z" />
  </g>
  <path
     style="fill:none;stroke:#9d848a;stroke-width:5.73000002;stroke-linecap:round;stroke-linejoin:round"
     inkscape:connector-curvature="0"
     id="path50"
     d="m 1588.093,1672.362 h 286.43 v -171.924 h -286.43 z" />
  <path
     style="fill:#9d848a;fill-opacity:0.16000001;stroke:#9d848a;stroke-width:4.21999979;stroke-linecap:round;stroke-linejoin:round"
     inkscape:connector-curvature="0"
     id="path52"
     d="m 1877.055,1747.004 h -292.078 l -15.727,41.628 h 324.116 z" />
  <path
     style="fill:none;stroke:#9d848a;stroke-width:5.26000023;stroke-linecap:square;stroke-linejoin:miter"
     inkscape:connector-curvature="0"
     id="path54"
     d="m 1664.477,1726.778 c 32.42,-8.574 36.018,-17.548 47.882,-52.434" />
  <path
     style="fill:none;stroke:#9d848a;stroke-width:5.65999985;stroke-linecap:square;stroke-linejoin:miter"
     inkscape:connector-curvature="0"
     id="path56"
     d="m 1799.081,1727.661 c -32.42,-8.575 -36.018,-17.548 -47.882,-52.435" />
  <path
     style="fill:none;stroke:#9d848a;stroke-width:5.38999987;stroke-linecap:square;stroke-linejoin:miter"
     inkscape:connector-curvature="0"
     id="path58"
     d="m 1745.042,1661.789 h -27.468" />
  <g
     id="g66"
     transform="translate(1024,1024)">
    <path
       style="fill:#9d848a;fill-opacity:1"
       inkscape:connector-curvature="0"
       id="path60"
       d="m 842.942,486.946 c 0,-1.072 -0.872,-1.943 -1.943,-1.943 h -2.479 c -1.072,0 -1.943,0.871 -1.943,1.943 v 2.479 c 0,1.071 0.871,1.943 1.943,1.943 h 2.479 c 1.071,0 1.943,-0.872 1.943,-1.943 z" />
    <path
       style="fill:#9d848a;fill-opacity:1"
       inkscape:connector-curvature="0"
       id="path62"
       d="m 840.999,501.827 c 1.071,0 1.943,-0.872 1.943,-1.943 v -2.479 c 0,-1.072 -0.872,-1.943 -1.943,-1.943 h -2.479 c -1.072,0 -1.943,0.871 -1.943,1.943 v 2.479 c 0,1.071 0.871,1.943 1.943,1.943 z" />
    <path
       style="fill:#9d848a;fill-opacity:1"
       inkscape:connector-curvature="0"
       id="path64"
       d="m 829.78,491.368 c 1.072,0 1.943,-0.872 1.943,-1.943 v -2.479 c 0,-1.072 -0.871,-1.943 -1.943,-1.943 h -2.479 c -1.071,0 -1.943,0.871 -1.943,1.943 v 2.479 c 0,1.071 0.872,1.943 1.943,1.943 z" />
  </g>
  <g
     id="g74"
     transform="translate(1024,1024)">
    <path
       style="fill:#9d848a;fill-opacity:1"
       inkscape:connector-curvature="0"
       id="path68"
       d="m 575.225,638.828 c -1.072,0 -1.943,-0.872 -1.943,-1.943 v -2.479 c 0,-1.072 0.871,-1.943 1.943,-1.943 h 2.478 c 1.072,0 1.943,0.871 1.943,1.943 v 2.479 c 0,1.071 -0.871,1.943 -1.943,1.943 z" />
    <path
       style="fill:#9d848a;fill-opacity:1"
       inkscape:connector-curvature="0"
       id="path70"
       d="m 590.105,636.885 c 0,1.071 -0.871,1.943 -1.943,1.943 h -2.479 c -1.071,0 -1.942,-0.872 -1.942,-1.943 v -2.479 c 0,-1.072 0.871,-1.943 1.942,-1.943 h 2.479 c 1.072,0 1.943,0.871 1.943,1.943 z" />
    <path
       style="fill:#9d848a;fill-opacity:1"
       inkscape:connector-curvature="0"
       id="path72"
       d="m 579.646,625.666 c 0,1.072 -0.871,1.943 -1.943,1.943 h -2.478 c -1.072,0 -1.943,-0.871 -1.943,-1.943 v -2.479 c 0,-1.071 0.871,-1.942 1.943,-1.942 h 2.478 c 1.072,0 1.943,0.871 1.943,1.942 z" />
  </g>
  <path
     style="fill:none;stroke:#9d848a;stroke-width:5.32999992;stroke-linecap:round;stroke-linejoin:round"
     inkscape:connector-curvature="0"
     id="path76"
     d="m 1824.962,1724.114 c 0,0 17.24,-29.229 36.038,0" />
  <g
     id="g134"
     transform="translate(1024,1024)">
    <g
       id="g130">
      <path
         style="fill:none;stroke:#000000;stroke-width:1.78999996;stroke-linecap:square;stroke-linejoin:miter"
         inkscape:connector-curvature="0"
         id="path78"
         d="m 728.414,582.22 c 3.227,0 5.831,-2.661 5.888,-5.831 v -37.364 c 0,-3.227 -2.605,-5.888 -5.888,-5.888 H 691.05 c -3.227,0 -5.888,2.604 -5.888,5.888 v 37.307 c 0,3.227 2.604,5.888 5.888,5.888 z" />
      <g
         id="g94">
        <g
           id="g84">
          <path
             style="fill:none;stroke:#030303;stroke-width:1.61000001;stroke-linecap:square;stroke-linejoin:miter"
             inkscape:connector-curvature="0"
             id="path80"
             d="m 735.911,541.419 h 32.736" />
          <path
             style="fill:none;stroke:#030303;stroke-width:1.61000001;stroke-linecap:square;stroke-linejoin:miter"
             inkscape:connector-curvature="0"
             id="path82"
             d="m 769.452,528.105 v 13.314" />
        </g>
        <path
           style="fill:none;stroke:#030303;stroke-width:1.61000001;stroke-linecap:square;stroke-linejoin:miter"
           inkscape:connector-curvature="0"
           id="path86"
           d="m 735.106,558.177 h 55.749" />
        <g
           id="g92">
          <path
             style="fill:none;stroke:#030303;stroke-width:1.61000001;stroke-linecap:square;stroke-linejoin:miter"
             inkscape:connector-curvature="0"
             id="path88"
             d="m 735.911,575.741 h 32.736" />
          <path
             style="fill:none;stroke:#030303;stroke-width:1.61000001;stroke-linecap:square;stroke-linejoin:miter"
             inkscape:connector-curvature="0"
             id="path90"
             d="M 768.647,602.805 V 575.741" />
        </g>
      </g>
      <g
         id="g110">
        <g
           id="g100">
          <path
             style="fill:none;stroke:#030303;stroke-width:1.61000001;stroke-linecap:square;stroke-linejoin:miter"
             inkscape:connector-curvature="0"
             id="path96"
             d="M 683.552,542.077 H 650.816" />
          <path
             style="fill:none;stroke:#030303;stroke-width:1.61000001;stroke-linecap:square;stroke-linejoin:miter"
             inkscape:connector-curvature="0"
             id="path98"
             d="m 650.012,528.764 v 13.313" />
        </g>
        <path
           style="fill:none;stroke:#030303;stroke-width:1.61000001;stroke-linecap:square;stroke-linejoin:miter"
           inkscape:connector-curvature="0"
           id="path102"
           d="M 684.357,558.835 H 628.609" />
        <g
           id="g108">
          <path
             style="fill:none;stroke:#030303;stroke-width:1.61000001;stroke-linecap:square;stroke-linejoin:miter"
             inkscape:connector-curvature="0"
             id="path104"
             d="M 683.552,576.399 H 650.816" />
          <path
             style="fill:none;stroke:#030303;stroke-width:1.61000001;stroke-linecap:square;stroke-linejoin:miter"
             inkscape:connector-curvature="0"
             id="path106"
             d="M 650.816,603.463 V 576.399" />
        </g>
      </g>
      <path
         style="fill:#030303;fill-opacity:1"
         inkscape:connector-curvature="0"
         id="path112"
         d="m 767.271,528.074 c 2.277,1.314 5.185,0.535 6.5,-1.742 1.315,-2.277 0.535,-5.185 -1.742,-6.5 -2.277,-1.315 -5.185,-0.536 -6.5,1.742 -1.315,2.277 -0.536,5.185 1.742,6.5 z" />
      <path
         style="fill:#030303;fill-opacity:1"
         inkscape:connector-curvature="0"
         id="path114"
         d="m 647.584,530.789 c 2.277,1.315 5.185,0.536 6.5,-1.742 1.315,-2.277 0.536,-5.185 -1.742,-6.5 -2.277,-1.315 -5.185,-0.536 -6.5,1.742 -1.315,2.277 -0.535,5.185 1.742,6.5 z" />
      <path
         style="fill:#030303;fill-opacity:1"
         inkscape:connector-curvature="0"
         id="path116"
         d="m 621.319,563.133 c 2.277,1.315 5.185,0.536 6.5,-1.742 1.315,-2.277 0.535,-5.185 -1.742,-6.5 -2.277,-1.314 -5.185,-0.535 -6.5,1.742 -1.315,2.277 -0.536,5.185 1.742,6.5 z" />
      <path
         style="fill:#030303;fill-opacity:1"
         inkscape:connector-curvature="0"
         id="path118"
         d="m 648.408,610.417 c 2.277,1.315 5.185,0.535 6.5,-1.742 1.315,-2.277 0.535,-5.185 -1.742,-6.5 -2.277,-1.315 -5.185,-0.536 -6.5,1.742 -1.315,2.277 -0.536,5.185 1.742,6.5 z" />
      <path
         style="fill:#030303;fill-opacity:1"
         inkscape:connector-curvature="0"
         id="path120"
         d="m 788.539,561.242 c 2.278,1.315 5.186,0.536 6.5,-1.741 1.315,-2.278 0.536,-5.186 -1.741,-6.5 -2.278,-1.315 -5.186,-0.536 -6.5,1.741 -1.315,2.278 -0.536,5.186 1.741,6.5 z" />
      <path
         style="fill:#030303;fill-opacity:1"
         inkscape:connector-curvature="0"
         id="path122"
         d="m 764.893,608.656 c 2.277,1.314 5.185,0.535 6.5,-1.742 1.315,-2.277 0.536,-5.185 -1.742,-6.5 -2.277,-1.315 -5.185,-0.536 -6.5,1.741 -1.315,2.278 -0.535,5.186 1.742,6.501 z" />
      <path
         style="fill:none;stroke:#030303;stroke-width:1.75999999;stroke-linecap:round;stroke-linejoin:round"
         inkscape:connector-curvature="0"
         id="path124"
         d="m 701.79,529.934 v 5.569" />
      <path
         style="fill:none;stroke:#030303;stroke-width:1.75999999;stroke-linecap:round;stroke-linejoin:round"
         inkscape:connector-curvature="0"
         id="path126"
         d="m 708.047,535.503 v -5.569" />
      <path
         style="fill:none;stroke:#030303;stroke-width:1.75999999;stroke-linecap:round;stroke-linejoin:round"
         inkscape:connector-curvature="0"
         id="path128"
         d="m 714.304,535.503 v -5.569" />
    </g>
    <path
       style="fill:#030303;fill-opacity:1"
       inkscape:connector-curvature="0"
       id="path132"
       d="m 702.279,554.925 c 1.018,-2.88 3.724,-4.916 6.952,-4.916 3.203,0 5.934,2.036 6.952,4.916 h 5.09 c -1.117,-5.586 -6.083,-9.807 -12.017,-9.807 -5.934,0 -10.9,4.221 -12.017,9.807 z m 13.904,4.916 c -1.018,2.881 -3.724,4.917 -6.952,4.917 -3.203,0 -5.934,-2.036 -6.952,-4.917 h -5.065 c 1.117,5.587 6.083,9.808 12.017,9.808 5.934,0 10.9,-4.221 12.017,-9.808 z" />
  </g>
  <g
     id="g262"
     transform="translate(1024,1024)">
    <path
       style="fill:none;stroke:#9d848a;stroke-width:5.73000002;stroke-linecap:round;stroke-linejoin:round"
       inkscape:connector-curvature="0"
       id="path138"
       d="M -840.679,670.297 H -554.25 V 498.373 h -286.429 z" />
    <path
       style="fill:#9d848a;fill-opacity:0.16000001;stroke:#9d848a;stroke-width:4.21999979;stroke-linecap:round;stroke-linejoin:round"
       inkscape:connector-curvature="0"
       id="path140"
       d="m -551.718,744.044 h -292.078 l -15.726,41.628 h 324.115 z" />
    <path
       style="fill:none;stroke:#9d848a;stroke-width:5.26000023;stroke-linecap:square;stroke-linejoin:miter"
       inkscape:connector-curvature="0"
       id="path142"
       d="m -764.296,723.819 c 32.42,-8.575 36.018,-17.548 47.882,-52.435" />
    <path
       style="fill:none;stroke:#9d848a;stroke-width:5.65999985;stroke-linecap:square;stroke-linejoin:miter"
       inkscape:connector-curvature="0"
       id="path144"
       d="m -629.692,724.702 c -32.42,-8.575 -36.018,-17.548 -47.882,-52.435" />
    <path
       style="fill:none;stroke:#9d848a;stroke-width:5.38999987;stroke-linecap:square;stroke-linejoin:miter"
       inkscape:connector-curvature="0"
       id="path146"
       d="m -683.731,658.83 h -27.468" />
    <g
       id="g154">
      <path
         style="fill:#9d848a;fill-opacity:1"
         inkscape:connector-curvature="0"
         id="path148"
         d="m -565.108,511.411 c 0,-1.072 -0.872,-1.943 -1.943,-1.943 h -2.479 c -1.072,0 -1.943,0.871 -1.943,1.943 v 2.478 c 0,1.072 0.871,1.943 1.943,1.943 h 2.479 c 1.071,0 1.943,-0.871 1.943,-1.943 z" />
      <path
         style="fill:#9d848a;fill-opacity:1"
         inkscape:connector-curvature="0"
         id="path150"
         d="m -567.051,526.291 c 1.071,0 1.943,-0.871 1.943,-1.943 v -2.478 c 0,-1.072 -0.872,-1.943 -1.943,-1.943 h -2.479 c -1.072,0 -1.943,0.871 -1.943,1.943 v 2.478 c 0,1.072 0.871,1.943 1.943,1.943 z" />
      <path
         style="fill:#9d848a;fill-opacity:1"
         inkscape:connector-curvature="0"
         id="path152"
         d="m -578.27,515.832 c 1.072,0 1.943,-0.871 1.943,-1.943 v -2.478 c 0,-1.072 -0.871,-1.943 -1.943,-1.943 h -2.479 c -1.071,0 -1.943,0.871 -1.943,1.943 v 2.478 c 0,1.072 0.872,1.943 1.943,1.943 z" />
    </g>
    <g
       id="g162">
      <path
         style="fill:#9d848a;fill-opacity:1"
         inkscape:connector-curvature="0"
         id="path156"
         d="m -829.548,659.868 c -1.072,0 -1.943,-0.871 -1.943,-1.943 v -2.478 c 0,-1.072 0.871,-1.943 1.943,-1.943 h 2.478 c 1.072,0 1.943,0.871 1.943,1.943 v 2.478 c 0,1.072 -0.871,1.943 -1.943,1.943 z" />
      <path
         style="fill:#9d848a;fill-opacity:1"
         inkscape:connector-curvature="0"
         id="path158"
         d="m -814.668,657.925 c 0,1.072 -0.871,1.943 -1.943,1.943 h -2.478 c -1.072,0 -1.943,-0.871 -1.943,-1.943 v -2.478 c 0,-1.072 0.871,-1.943 1.943,-1.943 h 2.478 c 1.072,0 1.943,0.871 1.943,1.943 z" />
      <path
         style="fill:#9d848a;fill-opacity:1"
         inkscape:connector-curvature="0"
         id="path160"
         d="m -825.127,646.707 c 0,1.071 -0.871,1.943 -1.943,1.943 h -2.478 c -1.072,0 -1.943,-0.872 -1.943,-1.943 v -2.479 c 0,-1.071 0.871,-1.943 1.943,-1.943 h 2.478 c 1.072,0 1.943,0.872 1.943,1.943 z" />
    </g>
    <path
       style="fill:none;stroke:#9d848a;stroke-width:5.32999992;stroke-linecap:round;stroke-linejoin:round"
       inkscape:connector-curvature="0"
       id="path164"
       d="m -603.811,721.155 c 0,0 17.24,-29.229 36.038,0" />
    <g
       id="g212">
      <g
         id="g172">
        <path
           style="fill:#9d848a;fill-opacity:0.86000001"
           inkscape:connector-curvature="0"
           id="path166"
           d="m -670.992,610.972 v -89.324 h -71.418 v 89.324 z" />
        <path
           style="fill:#ffffff;fill-opacity:1"
           inkscape:connector-curvature="0"
           id="path168"
           d="m -692.956,543.613 h 23.257 v -23.258 h -23.257 z" />
        <path
           style="fill:#6f6d82;fill-opacity:1"
           inkscape:connector-curvature="0"
           id="path170"
           d="m -692.956,521.648 v 21.97 h 22.039 z" />
      </g>
      <g
         id="g210">
        <g
           id="g188">
          <path
             style="fill:none;stroke:#6f6d82;stroke-width:1.39999998;stroke-linecap:round;stroke-linejoin:round"
             inkscape:connector-curvature="0"
             id="path174"
             d="m -733.269,531.995 v 72.693" />
          <path
             style="fill:none;stroke:#6f6d82;stroke-width:1.39999998;stroke-linecap:round;stroke-linejoin:round"
             inkscape:connector-curvature="0"
             id="path176"
             d="m -682.052,579.533 v 25.155" />
          <path
             style="fill:none;stroke:#6f6d82;stroke-width:1.39999998;stroke-linecap:round;stroke-linejoin:round"
             inkscape:connector-curvature="0"
             id="path178"
             d="m -682.047,574.223 v 0.005" />
          <path
             style="fill:none;stroke:#6f6d82;stroke-width:1.39999998;stroke-linecap:round;stroke-linejoin:round"
             inkscape:connector-curvature="0"
             id="path180"
             d="m -682.047,571.757 v 0.005" />
          <path
             style="fill:none;stroke:#6f6d82;stroke-width:1.39999998;stroke-linecap:round;stroke-linejoin:round"
             inkscape:connector-curvature="0"
             id="path182"
             d="m -682.047,569.291 v 0.005" />
          <path
             style="fill:none;stroke:#6f6d82;stroke-width:1.39999998;stroke-linecap:round;stroke-linejoin:round"
             inkscape:connector-curvature="0"
             id="path184"
             d="m -682.052,576.695 h 0.005" />
          <path
             style="fill:none;stroke:#6f6d82;stroke-width:1.39999998;stroke-linecap:round;stroke-linejoin:round"
             inkscape:connector-curvature="0"
             id="path186"
             d="m -682.052,604.688 h -51.217" />
        </g>
        <path
           style="fill:none;stroke:#6f6d82;stroke-width:1.39999998;stroke-linecap:round;stroke-linejoin:round"
           inkscape:connector-curvature="0"
           id="path190"
           d="m -728.305,558.462 h 28.876" />
        <path
           style="fill:none;stroke:#6f6d82;stroke-width:1.39999998;stroke-linecap:round;stroke-linejoin:round"
           inkscape:connector-curvature="0"
           id="path192"
           d="m -715.728,565.664 h 28.877" />
        <path
           style="fill:none;stroke:#6f6d82;stroke-width:1.39999998;stroke-linecap:round;stroke-linejoin:round"
           inkscape:connector-curvature="0"
           id="path194"
           d="m -729.708,597.238 h 7.779" />
        <path
           style="fill:none;stroke:#6f6d82;stroke-width:1.39999998;stroke-linecap:round;stroke-linejoin:round"
           inkscape:connector-curvature="0"
           id="path196"
           d="m -696.032,590.472 h 7.779" />
        <path
           style="fill:none;stroke:#6f6d82;stroke-width:1.39999998;stroke-linecap:round;stroke-linejoin:round"
           inkscape:connector-curvature="0"
           id="path198"
           d="m -729.673,583.706 h 7.778" />
        <path
           style="fill:none;stroke:#6f6d82;stroke-width:1.39999998;stroke-linecap:round;stroke-linejoin:round"
           inkscape:connector-curvature="0"
           id="path200"
           d="m -729.708,565.664 h 7.779" />
        <path
           style="fill:none;stroke:#6f6d82;stroke-width:1.39999998;stroke-linecap:round;stroke-linejoin:round"
           inkscape:connector-curvature="0"
           id="path202"
           d="m -720.493,574.772 h 28.877" />
        <path
           style="fill:none;stroke:#6f6d82;stroke-width:1.39999998;stroke-linecap:round;stroke-linejoin:round"
           inkscape:connector-curvature="0"
           id="path204"
           d="m -715.728,583.706 h 28.877" />
        <path
           style="fill:none;stroke:#6f6d82;stroke-width:1.39999998;stroke-linecap:round;stroke-linejoin:round"
           inkscape:connector-curvature="0"
           id="path206"
           d="m -729.006,590.472 h 28.876" />
        <path
           style="fill:none;stroke:#6f6d82;stroke-width:1.39999998;stroke-linecap:round;stroke-linejoin:round"
           inkscape:connector-curvature="0"
           id="path208"
           d="m -716.429,597.238 h 28.877" />
      </g>
    </g>
    <g
       id="g260">
      <g
         id="g220">
        <path
           style="fill:#9d848a;fill-opacity:0.86000001"
           inkscape:connector-curvature="0"
           id="path214"
           d="m -644.996,642.285 v -89.324 h -71.418 v 89.324 z" />
        <path
           style="fill:#ffffff;fill-opacity:1"
           inkscape:connector-curvature="0"
           id="path216"
           d="m -666.96,574.925 h 23.257 v -23.257 h -23.257 z" />
        <path
           style="fill:#6f6d82;fill-opacity:1"
           inkscape:connector-curvature="0"
           id="path218"
           d="m -666.96,552.961 v 21.97 h 22.038 z" />
      </g>
      <g
         id="g258">
        <g
           id="g236">
          <path
             style="fill:none;stroke:#6f6d82;stroke-width:1.39999998;stroke-linecap:round;stroke-linejoin:round"
             inkscape:connector-curvature="0"
             id="path222"
             d="m -707.274,563.308 v 72.693" />
          <path
             style="fill:none;stroke:#6f6d82;stroke-width:1.39999998;stroke-linecap:round;stroke-linejoin:round"
             inkscape:connector-curvature="0"
             id="path224"
             d="m -656.056,610.846 v 25.155" />
          <path
             style="fill:none;stroke:#6f6d82;stroke-width:1.39999998;stroke-linecap:round;stroke-linejoin:round"
             inkscape:connector-curvature="0"
             id="path226"
             d="m -656.051,605.536 v 0.005" />
          <path
             style="fill:none;stroke:#6f6d82;stroke-width:1.39999998;stroke-linecap:round;stroke-linejoin:round"
             inkscape:connector-curvature="0"
             id="path228"
             d="m -656.051,603.07 v 0.005" />
          <path
             style="fill:none;stroke:#6f6d82;stroke-width:1.39999998;stroke-linecap:round;stroke-linejoin:round"
             inkscape:connector-curvature="0"
             id="path230"
             d="m -656.051,600.604 v 0.005" />
          <path
             style="fill:none;stroke:#6f6d82;stroke-width:1.39999998;stroke-linecap:round;stroke-linejoin:round"
             inkscape:connector-curvature="0"
             id="path232"
             d="m -656.056,608.008 h 0.005" />
          <path
             style="fill:none;stroke:#6f6d82;stroke-width:1.39999998;stroke-linecap:round;stroke-linejoin:round"
             inkscape:connector-curvature="0"
             id="path234"
             d="m -656.056,636.001 h -51.218" />
        </g>
        <path
           style="fill:none;stroke:#6f6d82;stroke-width:1.39999998;stroke-linecap:round;stroke-linejoin:round"
           inkscape:connector-curvature="0"
           id="path238"
           d="m -702.31,589.775 h 28.877" />
        <path
           style="fill:none;stroke:#6f6d82;stroke-width:1.39999998;stroke-linecap:round;stroke-linejoin:round"
           inkscape:connector-curvature="0"
           id="path240"
           d="m -689.732,596.977 h 28.877" />
        <path
           style="fill:none;stroke:#6f6d82;stroke-width:1.39999998;stroke-linecap:round;stroke-linejoin:round"
           inkscape:connector-curvature="0"
           id="path242"
           d="m -703.712,628.551 h 7.778" />
        <path
           style="fill:none;stroke:#6f6d82;stroke-width:1.39999998;stroke-linecap:round;stroke-linejoin:round"
           inkscape:connector-curvature="0"
           id="path244"
           d="m -670.036,621.785 h 7.778" />
        <path
           style="fill:none;stroke:#6f6d82;stroke-width:1.39999998;stroke-linecap:round;stroke-linejoin:round"
           inkscape:connector-curvature="0"
           id="path246"
           d="m -703.678,615.019 h 7.779" />
        <path
           style="fill:none;stroke:#6f6d82;stroke-width:1.39999998;stroke-linecap:round;stroke-linejoin:round"
           inkscape:connector-curvature="0"
           id="path248"
           d="m -703.712,596.977 h 7.778" />
        <path
           style="fill:none;stroke:#6f6d82;stroke-width:1.39999998;stroke-linecap:round;stroke-linejoin:round"
           inkscape:connector-curvature="0"
           id="path250"
           d="m -694.497,606.085 h 28.877" />
        <path
           style="fill:none;stroke:#6f6d82;stroke-width:1.39999998;stroke-linecap:round;stroke-linejoin:round"
           inkscape:connector-curvature="0"
           id="path252"
           d="m -689.732,615.019 h 28.877" />
        <path
           style="fill:none;stroke:#6f6d82;stroke-width:1.39999998;stroke-linecap:round;stroke-linejoin:round"
           inkscape:connector-curvature="0"
           id="path254"
           d="m -703.011,621.785 h 28.877" />
        <path
           style="fill:none;stroke:#6f6d82;stroke-width:1.39999998;stroke-linecap:round;stroke-linejoin:round"
           inkscape:connector-curvature="0"
           id="path256"
           d="m -690.433,628.551 h 28.876" />
      </g>
    </g>
  </g>
  <path
     d="M 828.568,885.262 922.26,723.351 828.568,560.577 H 641.615 l -94.124,162.774 94.124,161.911 z"
     id="path264"
     inkscape:connector-curvature="0"
     style="fill:#cbb990;fill-opacity:0.81000001" />
  <path
     d="m 1427.074,884.83 93.692,-161.911 -93.692,-162.774 h -186.953 l -94.124,162.774 94.124,161.911 z"
     id="path268"
     inkscape:connector-curvature="0"
     style="fill:#cbb990;fill-opacity:0.81000001" />
  <g
     id="g280"
     transform="translate(1024,1024)">
    <path
       d="M 721.116,-300.034 V 401.947"
       id="path272"
       inkscape:connector-curvature="0"
       style="fill:none;stroke:#9d848a;stroke-width:4.48999977;stroke-linecap:round;stroke-linejoin:round" />
    <path
       d="M 498.766,-301.081 H 721.495"
       id="path274"
       inkscape:connector-curvature="0"
       style="fill:none;stroke:#9d848a;stroke-width:4.48999977;stroke-linecap:round;stroke-linejoin:round" />
    <path
       d="m 313.311,-135.487 v 82.0197"
       id="path276"
       inkscape:connector-curvature="0"
       style="fill:none;stroke:#9d848a;stroke-width:4.48999977;stroke-linecap:round;stroke-linejoin:round" />
    <path
       d="m -285.291,-137.001 v 82.0201"
       id="path278"
       inkscape:connector-curvature="0"
       style="fill:none;stroke:#9d848a;stroke-width:4.48999977;stroke-linecap:round;stroke-linejoin:round" />
  </g>
  <path
     d="m 923.272,722.919 h 220.705"
     id="path282"
     inkscape:connector-curvature="0"
     style="fill:none;stroke:#9d848a;stroke-width:4.48999977;stroke-linecap:round;stroke-linejoin:round" />
  <g
     id="g288"
     transform="translate(1024,1024)">
    <path
       d="m -698.194,-301.081 h 222.729"
       id="path284"
       inkscape:connector-curvature="0"
       style="fill:none;stroke:#9d848a;stroke-width:4.48999977;stroke-linecap:round;stroke-linejoin:round" />
    <path
       d="M -698.194,-301.081 V 407.178"
       id="path286"
       inkscape:connector-curvature="0"
       style="fill:none;stroke:#9d848a;stroke-width:4.48999977;stroke-linecap:round;stroke-linejoin:round" />
  </g>
  <path
     style="fill:#9d848a;fill-opacity:1"
     inkscape:connector-curvature="0"
     id="path292"
     d="m 738.706,970.3795 -11.082,-11.1127 -2.708,2.7704 13.79,13.8519 13.789,-13.8519 -2.708,-2.7704 z" />
  <path
     style="fill:#9d848a;fill-opacity:1"
     inkscape:connector-curvature="0"
     id="path294"
     d="m 442.383,722.912 -11.113,11.082 2.771,2.708 13.851,-13.79 -13.851,-13.789 -2.771,2.708 z" />
  <path
     style="fill:#9d848a;fill-opacity:1"
     inkscape:connector-curvature="0"
     id="path296"
     d="m 1026.8015,722.7 -11.1126,11.081 2.7703,2.708 13.8519,-13.789 -13.8519,-13.79 -2.7703,2.708 z" />
  <path
     style="fill:#9d848a;fill-opacity:1"
     inkscape:connector-curvature="0"
     id="path298"
     d="m 1634.816,722.619 -11.113,11.082 2.771,2.708 13.852,-13.79 -13.852,-13.789 -2.771,2.708 z" />
  <path
     style="fill:#9d848a;fill-opacity:1"
     inkscape:connector-curvature="0"
     id="path300"
     d="m 326.02,1435.919 11.081,11.113 2.708,-2.77 -13.789,-13.852 -13.79,13.852 2.708,2.77 z" />
  <path
     style="fill:#9d848a;fill-opacity:1"
     inkscape:connector-curvature="0"
     id="path302"
     d="m 326.535,1445.559 11.082,11.112 2.708,-2.77 -13.79,-13.852 -13.789,13.852 2.708,2.77 z" />
  <path
     style="fill:#9d848a;fill-opacity:1"
     inkscape:connector-curvature="0"
     id="path304"
     d="m 326.535,1455.658 11.082,11.113 2.708,-2.771 -13.79,-13.851 -13.789,13.851 2.708,2.771 z" />
  <path
     style="fill:#9d848a;fill-opacity:1"
     inkscape:connector-curvature="0"
     id="path306"
     d="m 1337.53,971.6293 -11.081,-11.1126 -2.708,2.7704 13.789,13.8519 13.79,-13.8519 -2.708,-2.7704 z" />
  <path
     style="fill:#9d848a;fill-opacity:1"
     inkscape:connector-curvature="0"
     id="path308"
     d="m 1744.895,1427.159 -12.596,-12.631 -3.078,3.149 15.674,15.745 15.674,-15.745 -3.078,-3.149 z" />
  <path
     style="fill:#9d848a;fill-opacity:1"
     inkscape:connector-curvature="0"
     id="path310"
     d="m 1744.895,1436.662 -12.596,-12.631 -3.078,3.149 15.674,15.745 15.674,-15.745 -3.078,-3.149 z" />
  <path
     style="fill:#9d848a;fill-opacity:1"
     inkscape:connector-curvature="0"
     id="path312"
     d="m 1744.895,1446.165 -12.596,-12.631 -3.078,3.149 15.674,15.745 15.674,-15.745 -3.078,-3.149 z" />
  <text
     xml:space="preserve"
     style="font-style:normal;font-variant:normal;font-weight:normal;font-stretch:normal;font-size:21.33333397px;line-height:1.25;font-family:sans-serif;-inkscape-font-specification:'sans-serif, Normal';font-variant-ligatures:normal;font-variant-caps:normal;font-variant-numeric:normal;font-feature-settings:normal;text-align:start;letter-spacing:0px;word-spacing:0px;writing-mode:lr-tb;text-anchor:start;fill:#000000;fill-opacity:1;stroke:none"
     x="167.21277"
     y="1863.9125"
     id="text1298"><tspan
       sodipodi:role="line"
       id="tspan1296"
       x="167.21277"
       y="1863.9125">La sortie d'IMGT/high V-quest</tspan></text>
  <text
     id="text1302"
     y="724.10431"
     x="736.34985"
     style="font-style:normal;font-variant:normal;font-weight:normal;font-stretch:normal;font-size:24px;line-height:1.25;font-family:sans-serif;-inkscape-font-specification:'sans-serif, Normal';font-variant-ligatures:normal;font-variant-caps:normal;font-variant-numeric:normal;font-feature-settings:normal;text-align:center;letter-spacing:0px;word-spacing:0px;writing-mode:lr;text-anchor:middle;fill:#000000;fill-opacity:1;stroke:none;"
     xml:space="preserve"><tspan
       sodipodi:role="line"
       id="tspan1310"
       x="736.34985"
       y="724.10431">Regroupement des clones</tspan><tspan
       sodipodi:role="line"
       id="tspan1312"
       x="736.34985"
       y="747.43762"> et des clonotypes</tspan></text>
  <text
     xml:space="preserve"
     style="font-style:normal;font-variant:normal;font-weight:normal;font-stretch:normal;font-size:24px;line-height:1.25;font-family:sans-serif;-inkscape-font-specification:'sans-serif, Normal';font-variant-ligatures:normal;font-variant-caps:normal;font-variant-numeric:normal;font-feature-settings:normal;text-align:center;letter-spacing:0px;word-spacing:0px;writing-mode:lr;text-anchor:middle;fill:#000000;fill-opacity:1;stroke:none;"
     x="1336.1682"
     y="719.50214"
     id="text1329"><tspan
       sodipodi:role="line"
       id="tspan1337">Analyse d'hétérogénéité</tspan><tspan
       sodipodi:role="line"
       id="tspan1339"> intra-clonale</tspan></text>
  <text
     id="text1343"
     y="1847.0378"
     x="1607.6971"
     style="font-style:normal;font-variant:normal;font-weight:normal;font-stretch:normal;font-size:21.33333397px;line-height:1.25;font-family:sans-serif;-inkscape-font-specification:'sans-serif, Normal';font-variant-ligatures:normal;font-variant-caps:normal;font-variant-numeric:normal;font-feature-settings:normal;text-align:start;letter-spacing:0px;word-spacing:0px;writing-mode:lr-tb;text-anchor:start;fill:#000000;fill-opacity:1;stroke:none"
     xml:space="preserve"><tspan
       sodipodi:role="line"
       id="tspan1345"
       x="1607.6971"
       y="1847.0378">Visualisation interactive</tspan></text>
  <text
     xml:space="preserve"
     style="font-style:normal;font-variant:normal;font-weight:normal;font-stretch:normal;font-size:21.33333397px;line-height:1.25;font-family:sans-serif;-inkscape-font-specification:'sans-serif, Normal';font-variant-ligatures:normal;font-variant-caps:normal;font-variant-numeric:normal;font-feature-settings:normal;text-align:start;letter-spacing:0px;word-spacing:0px;writing-mode:lr-tb;text-anchor:start;fill:#000000;fill-opacity:1;stroke:none"
     x="685.72577"
     y="1334.661"
     id="text1349"><tspan
       sodipodi:role="line"
       id="tspan1351"
       x="685.72577"
       y="1334.661">Clonalité</tspan></text>
  <text
     id="text1355"
     y="1333.127"
     x="1216.5114"
     style="font-style:normal;font-variant:normal;font-weight:normal;font-stretch:normal;font-size:21.33333397px;line-height:1.25;font-family:sans-serif;-inkscape-font-specification:'sans-serif, Normal';font-variant-ligatures:normal;font-variant-caps:normal;font-variant-numeric:normal;font-feature-settings:normal;text-align:start;letter-spacing:0px;word-spacing:0px;writing-mode:lr-tb;text-anchor:start;fill:#000000;fill-opacity:1;stroke:none"
     xml:space="preserve"><tspan
       sodipodi:role="line"
       id="tspan1357"
       x="1216.5114"
       y="1333.127">Inférence de réseau</tspan></text>
</svg>
