<?xml version="1.0" encoding="utf-8" ?>	<!-- Generator: Assembly 2.2 - http://assemblyapp.co -->	<svg version="1.1" xmlns="http://www.w3.org/2000/svg" xmlns:xlink="http://www.w3.org/1999/xlink" width="2048.00" height="1152.00" viewBox="0 0 2048.0 1151.9999914169312">		<rect x="0" y="0" width="2048.00" height="1152.00" fill="#ffffff" />		<g id="document" transform="matrix(1,0,0,1,1024.0,575.9999957084656)">			<g>				<path d="M679.882,-60.1154 L681.395,-161.413 L470.576,-161.339 L470.576,-60.1154 L679.882,-60.1154 Z " fill="#ff7503" fill-opacity="1.00" />				<path d="M561.825,-88.5133 C562.418,-84.9052 563.925,-82.1745 566.347,-80.321 C568.769,-78.4675 571.784,-77.5408 575.392,-77.5408 C578.209,-77.5408 580.557,-78.0351 582.435,-79.0236 C584.313,-80.0121 585.833,-81.2601 586.995,-82.7676 C588.156,-84.275 588.972,-85.9555 589.441,-87.809 C589.911,-89.6624 590.146,-91.4788 590.146,-93.2581 L590.146,-131.365 L584.808,-131.365 L584.808,-95.4822 C584.808,-93.8512 584.684,-92.2572 584.437,-90.7003 C584.19,-89.1434 583.733,-87.7595 583.065,-86.5486 C582.398,-85.3377 581.459,-84.3492 580.248,-83.5831 C579.037,-82.817 577.468,-82.4339 575.54,-82.4339 C573.168,-82.4339 571.315,-83.0765 569.98,-84.3615 C568.646,-85.6466 567.731,-87.4012 567.237,-89.6253 L561.825,-88.5133 Z " fill="#000000" fill-opacity="1.00" />				<path d="M382.646,-59.9035 L382.646,-161.201 L267.984,-161.041 L267.984,-59.9035 L382.646,-59.9035 Z " fill="#fdf4af" fill-opacity="1.00" />				<path d="M311.049,-127.321 L319.677,-127.321 C323.004,-127.321 325.89,-126.818 328.335,-125.811 C330.779,-124.805 332.813,-123.47 334.436,-121.806 C336.058,-120.142 337.26,-118.252 338.041,-116.136 C338.821,-114.021 339.212,-111.833 339.212,-109.573 C339.212,-107.314 338.821,-105.126 338.041,-103.01 C337.26,-100.895 336.058,-99.0048 334.436,-97.341 C332.813,-95.6771 330.779,-94.3419 328.335,-93.3354 C325.89,-92.3289 323.004,-91.8256 319.677,-91.8256 L311.049,-91.8256 L311.049,-127.321 Z M306.612,-87.7584 L321.094,-87.7584 C323.805,-87.7584 326.527,-88.2103 329.259,-89.1141 C331.991,-90.018 334.456,-91.384 336.654,-93.2121 C338.852,-95.0403 340.629,-97.3101 341.985,-100.022 C343.34,-102.733 344.018,-105.917 344.018,-109.573 C344.018,-113.189 343.34,-116.362 341.985,-119.094 C340.629,-121.826 338.852,-124.106 336.654,-125.935 C334.456,-127.763 331.991,-129.129 329.259,-130.033 C326.527,-130.936 323.805,-131.388 321.094,-131.388 L306.612,-131.388 L306.612,-87.7584 Z " fill="#000000" fill-opacity="1.00" />				<path d="M267.984,-59.3588 L267.984,-160.656 L178.802,-160.496 L178.802,-59.3588 L267.984,-59.3588 Z " fill="#a63171" fill-opacity="1.00" />				<path d="M470.576,-60.1154 L470.576,-161.413 L381.393,-161.253 L381.393,-60.1154 L470.576,-60.1154 Z " fill="#a63171" fill-opacity="1.00" />				<path d="M179.514,-59.3589 L179.514,-160.656 L-760.711,-160.656 L-760.71,-59.3587 L179.514,-59.3589 Z " fill="#09476b" fill-opacity="1.00" />				<path d="M-312.185,-143 L-319.742,-143 L-294.33,-76.1156 L-287.528,-76.1156 L-261.454,-143 L-268.823,-143 L-290.74,-86.3184 L-290.929,-86.3184 L-312.185,-143 Z " fill="#ffffff" fill-opacity="1.00" />			</g>			<path d="M410.934,-136.631 L404.262,-136.631 L404.262,-84.1409 L409.6,-84.1409 L409.6,-129.069 L409.748,-129.069 L441.034,-84.1409 L447.707,-84.1409 L447.707,-136.631 L442.369,-136.631 L442.369,-92.1478 L442.221,-92.1478 L410.934,-136.631 Z " fill="#000000" fill-opacity="1.00" />			<path d="M208.343,-137.298 L201.671,-137.298 L201.671,-84.8081 L207.009,-84.8081 L207.009,-129.736 L207.157,-129.736 L238.443,-84.8081 L245.116,-84.8081 L245.116,-137.298 L239.778,-137.298 L239.778,-92.815 L239.629,-92.815 L208.343,-137.298 Z " fill="#000000" fill-opacity="1.00" />			<g>				<path d="M-526.99,100.843 L-526.99,-0.454327 L-761.807,-0.454295 L-761.807,100.843 L-526.99,100.843 Z " fill="#ffffff" fill-opacity="1.00" stroke-width="2.42" stroke="#000000" stroke-linecap="square" stroke-linejoin="miter" />				<path d="M-219.831,101.198 L-219.831,-0.0991421 L-454.648,-0.0991101 L-454.648,101.198 L-219.831,101.198 Z " fill="#ffffff" fill-opacity="1.00" stroke-width="2.42" stroke="#000000" stroke-linecap="square" stroke-linejoin="miter" />				<path d="M162.439,101.406 L162.439,0.109053 L-146.779,0.109095 L-146.779,101.406 L162.439,101.406 Z " fill="#ffffff" fill-opacity="1.00" stroke-width="2.42" stroke="#000000" stroke-linecap="square" stroke-linejoin="miter" />				<path d="M516.252,101.406 L516.252,0.10905 L163.003,0.109098 L163.003,101.406 L516.252,101.406 Z " fill="#ccdbe0" fill-opacity="1.00" stroke-width="2.42" stroke="#000000" stroke-linecap="square" stroke-linejoin="miter" />				<path d="M-454.001,101.198 L-454.001,-0.0991311 L-527.701,-0.0991211 L-527.701,101.198 L-454.001,101.198 Z " fill="#ccdbe0" fill-opacity="1.00" stroke-width="2.42" stroke="#000000" stroke-linecap="square" stroke-linejoin="miter" />				<path d="M-146.131,102.054 L-146.131,0.756585 L-219.831,0.756595 L-219.831,102.054 L-146.131,102.054 Z " fill="#ccdbe0" fill-opacity="1.00" stroke-width="2.42" stroke="#000000" stroke-linecap="square" stroke-linejoin="miter" />				<path d="M669.515,101.406 L669.515,0.109063 L516.815,0.109084 L516.815,101.406 L669.515,101.406 Z " fill="#ffffff" fill-opacity="1.00" stroke-width="2.42" stroke="#000000" stroke-linecap="square" stroke-linejoin="miter" />				<path d="M-503.597,55.6965 C-503.883,56.14 -504.194,56.5083 -504.531,56.8015 C-504.867,57.0948 -505.224,57.3272 -505.603,57.4989 C-505.982,57.6705 -506.369,57.7921 -506.762,57.8636 C-507.155,57.9351 -507.552,57.9709 -507.953,57.9709 C-508.926,57.9709 -509.798,57.7921 -510.571,57.4345 C-511.343,57.0769 -511.997,56.5977 -512.534,55.9969 C-513.07,55.3961 -513.481,54.6988 -513.768,53.9049 C-514.054,53.111 -514.197,52.2778 -514.197,51.4052 C-514.197,50.5327 -514.054,49.6994 -513.768,48.9056 C-513.481,48.1117 -513.07,47.4143 -512.534,46.8136 C-511.997,46.2128 -511.343,45.7336 -510.571,45.376 C-509.798,45.0184 -508.926,44.8396 -507.953,44.8396 C-507.552,44.8396 -507.152,44.8968 -506.751,45.0112 C-506.351,45.1256 -505.975,45.2758 -505.625,45.4618 C-505.274,45.6478 -504.963,45.8623 -504.691,46.1055 C-504.42,46.3487 -504.205,46.5918 -504.048,46.835 L-502.696,45.8266 C-503.368,44.9683 -504.177,44.3532 -505.121,43.9813 C-506.065,43.6094 -507.009,43.4234 -507.953,43.4234 C-509.083,43.4234 -510.131,43.6237 -511.096,44.0242 C-512.062,44.4247 -512.899,44.979 -513.607,45.6871 C-514.315,46.3952 -514.869,47.2355 -515.269,48.2082 C-515.67,49.1809 -515.87,50.2466 -515.87,51.4052 C-515.87,52.5639 -515.67,53.6295 -515.269,54.6022 C-514.869,55.5749 -514.315,56.4153 -513.607,57.1234 C-512.899,57.8314 -512.062,58.3857 -511.096,58.7862 C-510.131,59.1868 -509.083,59.387 -507.953,59.387 C-507.323,59.387 -506.726,59.3155 -506.161,59.1725 C-505.596,59.0294 -505.071,58.8327 -504.584,58.5824 C-504.098,58.3321 -503.665,58.0353 -503.286,57.692 C-502.907,57.3487 -502.589,56.9839 -502.331,56.5977 L-503.597,55.6965 Z M-498.405,45.2258 L-495.401,45.2258 C-494.242,45.2258 -493.237,45.401 -492.386,45.7515 C-491.535,46.1019 -490.827,46.5668 -490.262,47.1461 C-489.697,47.7255 -489.279,48.3834 -489.007,49.1201 C-488.735,49.8568 -488.599,50.6185 -488.599,51.4052 C-488.599,52.192 -488.735,52.9537 -489.007,53.6903 C-489.279,54.427 -489.697,55.085 -490.262,55.6643 C-490.827,56.2437 -491.535,56.7085 -492.386,57.059 C-493.237,57.4095 -494.242,57.5847 -495.401,57.5847 L-498.405,57.5847 L-498.405,45.2258 Z M-499.95,59.0008 L-494.907,59.0008 C-493.963,59.0008 -493.016,58.8435 -492.064,58.5288 C-491.113,58.2141 -490.255,57.7385 -489.49,57.1019 C-488.724,56.4654 -488.106,55.6751 -487.634,54.731 C-487.162,53.7869 -486.926,52.6783 -486.926,51.4052 C-486.926,50.1465 -487.162,49.0414 -487.634,48.0902 C-488.106,47.139 -488.724,46.3451 -489.49,45.7085 C-490.255,45.072 -491.113,44.5964 -492.064,44.2817 C-493.016,43.967 -493.963,43.8097 -494.907,43.8097 L-499.95,43.8097 L-499.95,59.0008 Z M-482.291,45.2258 L-479.545,45.2258 C-478.858,45.2258 -478.275,45.2937 -477.796,45.4296 C-477.317,45.5655 -476.934,45.755 -476.648,45.9982 C-476.362,46.2414 -476.154,46.5239 -476.026,46.8457 C-475.897,47.1676 -475.833,47.5073 -475.833,47.8649 C-475.833,48.2368 -475.897,48.5837 -476.026,48.9056 C-476.154,49.2274 -476.362,49.5063 -476.648,49.7424 C-476.934,49.9784 -477.317,50.1679 -477.796,50.311 C-478.275,50.454 -478.858,50.5255 -479.545,50.5255 L-482.291,50.5255 L-482.291,45.2258 Z M-482.291,51.9416 L-479.716,51.9416 L-475.554,59.0008 L-473.665,59.0008 L-478.043,51.7914 C-476.784,51.677 -475.822,51.2586 -475.157,50.5362 C-474.492,49.8139 -474.159,48.9234 -474.159,47.8649 C-474.159,46.506 -474.606,45.4904 -475.5,44.8181 C-476.394,44.1458 -477.613,43.8097 -479.158,43.8097 L-483.836,43.8097 L-483.836,59.0008 L-482.291,59.0008 L-482.291,51.9416 Z M-465.705,43.8097 L-467.078,43.8097 L-470.94,46.9852 L-469.975,48.1439 L-467.25,45.7407 L-467.25,59.0008 L-465.705,59.0008 L-465.705,43.8097 Z " fill="#000000" fill-opacity="1.00" />				<path d="M-197.725,57.7478 C-198.011,58.1912 -198.322,58.5595 -198.658,58.8528 C-198.994,59.146 -199.352,59.3784 -199.731,59.5501 C-200.11,59.7217 -200.496,59.8433 -200.889,59.9149 C-201.283,59.9864 -201.68,60.0221 -202.08,60.0221 C-203.053,60.0221 -203.925,59.8433 -204.698,59.4857 C-205.47,59.1281 -206.125,58.6489 -206.661,58.0481 C-207.198,57.4474 -207.609,56.75 -207.895,55.9561 C-208.181,55.1623 -208.324,54.329 -208.324,53.4565 C-208.324,52.5839 -208.181,51.7507 -207.895,50.9568 C-207.609,50.1629 -207.198,49.4656 -206.661,48.8648 C-206.125,48.264 -205.47,47.7848 -204.698,47.4272 C-203.925,47.0696 -203.053,46.8908 -202.08,46.8908 C-201.68,46.8908 -201.279,46.948 -200.879,47.0624 C-200.478,47.1769 -200.103,47.3271 -199.752,47.513 C-199.402,47.699 -199.091,47.9136 -198.819,48.1567 C-198.547,48.3999 -198.332,48.6431 -198.175,48.8862 L-196.823,47.8778 C-197.496,47.0195 -198.304,46.4044 -199.248,46.0325 C-200.192,45.6606 -201.136,45.4747 -202.08,45.4747 C-203.21,45.4747 -204.258,45.6749 -205.224,46.0754 C-206.189,46.476 -207.026,47.0303 -207.734,47.7383 C-208.442,48.4464 -208.996,49.2868 -209.397,50.2595 C-209.797,51.2321 -209.998,52.2978 -209.998,53.4565 C-209.998,54.6151 -209.797,55.6808 -209.397,56.6535 C-208.996,57.6262 -208.442,58.4665 -207.734,59.1746 C-207.026,59.8827 -206.189,60.437 -205.224,60.8375 C-204.258,61.238 -203.21,61.4383 -202.08,61.4383 C-201.451,61.4383 -200.854,61.3667 -200.289,61.2237 C-199.724,61.0807 -199.198,60.884 -198.712,60.6336 C-198.225,60.3833 -197.792,60.0865 -197.413,59.7432 C-197.034,59.3999 -196.716,59.0351 -196.459,58.6489 L-197.725,57.7478 Z M-192.532,47.277 L-189.528,47.277 C-188.37,47.277 -187.365,47.4522 -186.514,47.8027 C-185.662,48.1531 -184.954,48.618 -184.389,49.1974 C-183.824,49.7767 -183.406,50.4347 -183.134,51.1714 C-182.862,51.908 -182.726,52.6697 -182.726,53.4565 C-182.726,54.2432 -182.862,55.0049 -183.134,55.7416 C-183.406,56.4782 -183.824,57.1362 -184.389,57.7156 C-184.954,58.2949 -185.662,58.7598 -186.514,59.1102 C-187.365,59.4607 -188.37,59.6359 -189.528,59.6359 L-192.532,59.6359 L-192.532,47.277 Z M-194.077,61.052 L-189.035,61.052 C-188.091,61.052 -187.143,60.8947 -186.192,60.58 C-185.24,60.2653 -184.382,59.7897 -183.617,59.1532 C-182.852,58.5166 -182.233,57.7263 -181.761,56.7822 C-181.289,55.8381 -181.053,54.7295 -181.053,53.4565 C-181.053,52.1977 -181.289,51.0927 -181.761,50.1414 C-182.233,49.1902 -182.852,48.3963 -183.617,47.7598 C-184.382,47.1232 -185.24,46.6476 -186.192,46.3329 C-187.143,46.0182 -188.091,45.8609 -189.035,45.8609 L-194.077,45.8609 L-194.077,61.052 Z M-176.418,47.277 L-173.672,47.277 C-172.985,47.277 -172.402,47.345 -171.923,47.4808 C-171.444,47.6167 -171.061,47.8063 -170.775,48.0494 C-170.489,48.2926 -170.282,48.5751 -170.153,48.897 C-170.024,49.2188 -169.96,49.5585 -169.96,49.9162 C-169.96,50.2881 -170.024,50.6349 -170.153,50.9568 C-170.282,51.2786 -170.489,51.5576 -170.775,51.7936 C-171.061,52.0296 -171.444,52.2191 -171.923,52.3622 C-172.402,52.5052 -172.985,52.5768 -173.672,52.5768 L-176.418,52.5768 L-176.418,47.277 Z M-176.418,53.9929 L-173.844,53.9929 L-169.681,61.052 L-167.793,61.052 L-172.17,53.8427 C-170.911,53.7282 -169.949,53.3098 -169.284,52.5875 C-168.619,51.8651 -168.286,50.9747 -168.286,49.9162 C-168.286,48.5572 -168.733,47.5416 -169.627,46.8693 C-170.521,46.197 -171.741,45.8609 -173.286,45.8609 L-177.963,45.8609 L-177.963,61.052 L-176.418,61.052 L-176.418,53.9929 Z M-156.614,59.6359 L-164.596,59.6359 L-159.811,54.894 C-159.425,54.5221 -159.049,54.1431 -158.685,53.7569 C-158.32,53.3706 -157.994,52.963 -157.708,52.5338 C-157.422,52.1047 -157.19,51.647 -157.011,51.1606 C-156.832,50.6743 -156.743,50.1379 -156.743,49.5514 C-156.743,48.8934 -156.868,48.3176 -157.118,47.8241 C-157.369,47.3307 -157.705,46.9194 -158.127,46.5904 C-158.549,46.2614 -159.035,46.0147 -159.586,45.8502 C-160.136,45.6857 -160.719,45.6034 -161.334,45.6034 C-162.507,45.6034 -163.505,45.9253 -164.328,46.5689 C-165.15,47.2126 -165.669,48.0995 -165.883,49.2295 L-164.252,49.4012 C-164.095,48.6717 -163.745,48.0924 -163.201,47.6632 C-162.658,47.2341 -162,47.0195 -161.227,47.0195 C-160.827,47.0195 -160.448,47.0803 -160.09,47.2019 C-159.732,47.3235 -159.418,47.4987 -159.146,47.7276 C-158.874,47.9565 -158.663,48.2354 -158.513,48.5644 C-158.363,48.8934 -158.288,49.2653 -158.288,49.6801 C-158.288,50.0234 -158.345,50.3524 -158.459,50.6671 C-158.574,50.9818 -158.724,51.2822 -158.91,51.5683 C-159.096,51.8544 -159.303,52.1262 -159.532,52.3836 C-159.761,52.6411 -159.99,52.8843 -160.219,53.1132 L-166.269,59.2712 L-166.269,61.052 L-156.614,61.052 L-156.614,59.6359 Z " fill="#000000" fill-opacity="1.00" />				<path d="M320.543,57.1318 C320.162,57.7236 319.746,58.2151 319.298,58.6065 C318.849,58.9978 318.372,59.308 317.866,59.537 C317.36,59.7661 316.845,59.9283 316.32,60.0238 C315.795,60.1192 315.265,60.167 314.731,60.167 C313.433,60.167 312.268,59.9283 311.238,59.4511 C310.207,58.9739 309.333,58.3344 308.618,57.5327 C307.902,56.731 307.353,55.8004 306.971,54.741 C306.589,53.6816 306.399,52.5696 306.399,51.4052 C306.399,50.2408 306.589,49.1289 306.971,48.0695 C307.353,47.0101 307.902,46.0795 308.618,45.2778 C309.333,44.476 310.207,43.8366 311.238,43.3593 C312.268,42.8821 313.433,42.6435 314.731,42.6435 C315.265,42.6435 315.8,42.7199 316.334,42.8726 C316.869,43.0253 317.37,43.2257 317.837,43.4739 C318.305,43.722 318.72,44.0084 319.083,44.3329 C319.446,44.6574 319.732,44.9819 319.942,45.3064 L321.746,43.9606 C320.849,42.8153 319.77,41.9945 318.51,41.4982 C317.25,41.0019 315.991,40.7537 314.731,40.7537 C313.223,40.7537 311.825,41.021 310.536,41.5555 C309.248,42.0899 308.131,42.8296 307.186,43.7745 C306.241,44.7194 305.501,45.8409 304.967,47.1389 C304.432,48.4369 304.165,49.859 304.165,51.4052 C304.165,52.9514 304.432,54.3735 304.967,55.6716 C305.501,56.9696 306.241,58.0911 307.186,59.0359 C308.131,59.9808 309.248,60.7205 310.536,61.255 C311.825,61.7895 313.223,62.0567 314.731,62.0567 C315.571,62.0567 316.368,61.9613 317.122,61.7704 C317.876,61.5795 318.577,61.3171 319.226,60.983 C319.875,60.6489 320.453,60.2529 320.958,59.7947 C321.464,59.3366 321.889,58.8498 322.233,58.3344 L320.543,57.1318 Z M327.472,43.1589 L331.481,43.1589 C333.027,43.1589 334.368,43.3927 335.504,43.8604 C336.64,44.3281 337.585,44.9485 338.339,45.7216 C339.093,46.4947 339.651,47.3727 340.014,48.3558 C340.376,49.3389 340.558,50.3554 340.558,51.4052 C340.558,52.4551 340.376,53.4716 340.014,54.4547 C339.651,55.4377 339.093,56.3158 338.339,57.0889 C337.585,57.862 336.64,58.4824 335.504,58.95 C334.368,59.4177 333.027,59.6516 331.481,59.6516 L327.472,59.6516 L327.472,43.1589 Z M325.411,61.5413 L332.14,61.5413 C333.4,61.5413 334.664,61.3314 335.934,60.9114 C337.203,60.4915 338.348,59.8568 339.37,59.0073 C340.391,58.1579 341.216,57.1032 341.846,55.8434 C342.476,54.5835 342.791,53.1041 342.791,51.4052 C342.791,49.7254 342.476,48.2508 341.846,46.9814 C341.216,45.712 340.391,44.6526 339.37,43.8031 C338.348,42.9537 337.203,42.319 335.934,41.899 C334.664,41.4791 333.4,41.2691 332.14,41.2691 L325.411,41.2691 L325.411,61.5413 Z M348.976,43.1589 L352.641,43.1589 C353.557,43.1589 354.335,43.2496 354.975,43.4309 C355.614,43.6123 356.125,43.8652 356.506,44.1897 C356.888,44.5142 357.165,44.8912 357.337,45.3207 C357.509,45.7502 357.594,46.2036 357.594,46.6808 C357.594,47.1771 357.509,47.64 357.337,48.0695 C357.165,48.499 356.888,48.8712 356.506,49.1862 C356.125,49.5011 355.614,49.7541 354.975,49.9449 C354.335,50.1358 353.557,50.2313 352.641,50.2313 L348.976,50.2313 L348.976,43.1589 Z M348.976,52.1211 L352.412,52.1211 L357.967,61.5413 L360.486,61.5413 L354.645,51.9206 C356.325,51.7679 357.609,51.2096 358.496,50.2456 C359.384,49.2816 359.828,48.0933 359.828,46.6808 C359.828,44.8673 359.231,43.512 358.038,42.6149 C356.845,41.7177 355.218,41.2691 353.156,41.2691 L346.914,41.2691 L346.914,61.5413 L348.976,61.5413 L348.976,52.1211 Z M366.986,51.8634 L367.874,51.8634 C368.542,51.8634 369.186,51.9349 369.807,52.0781 C370.427,52.2213 370.976,52.4551 371.453,52.7796 C371.93,53.1041 372.312,53.5289 372.598,54.0538 C372.885,54.5787 373.028,55.223 373.028,55.9865 C373.028,56.5783 372.918,57.1223 372.698,57.6186 C372.479,58.1149 372.174,58.5396 371.782,58.8928 C371.391,59.2459 370.938,59.5179 370.422,59.7088 C369.907,59.8997 369.363,59.9952 368.79,59.9952 C367.568,59.9952 366.619,59.7613 365.941,59.2936 C365.263,58.826 364.753,58.1054 364.409,57.1318 L362.233,57.7904 C362.787,59.2221 363.617,60.2624 364.724,60.9114 C365.831,61.5604 367.129,61.8849 368.618,61.8849 C369.496,61.8849 370.327,61.7561 371.109,61.4984 C371.892,61.2407 372.579,60.8637 373.171,60.3674 C373.763,59.8711 374.23,59.2602 374.574,58.5349 C374.918,57.8095 375.089,56.9791 375.089,56.0438 C375.089,55.4139 374.994,54.8126 374.803,54.2399 C374.612,53.6672 374.345,53.1518 374.001,52.6937 C373.658,52.2356 373.247,51.849 372.77,51.5341 C372.293,51.2191 371.768,51.0044 371.195,50.8898 L371.109,50.8326 C371.567,50.6799 372.006,50.4556 372.426,50.1597 C372.846,49.8638 373.214,49.5154 373.529,49.1146 C373.844,48.7137 374.092,48.2651 374.273,47.7688 C374.455,47.2725 374.545,46.7476 374.545,46.194 C374.545,45.3541 374.388,44.6049 374.073,43.9463 C373.758,43.2878 373.333,42.7342 372.799,42.2856 C372.264,41.837 371.644,41.4982 370.938,41.2691 C370.231,41.0401 369.477,40.9255 368.675,40.9255 C367.435,40.9255 366.342,41.188 365.397,41.7129 C364.452,42.2379 363.674,43.0444 363.063,44.1324 L364.867,45.0487 C365.287,44.3233 365.822,43.7697 366.471,43.388 C367.12,43.0062 367.874,42.8153 368.733,42.8153 C369.916,42.8153 370.837,43.116 371.496,43.7172 C372.154,44.3185 372.484,45.1632 372.484,46.2513 C372.484,46.9194 372.364,47.492 372.126,47.9693 C371.887,48.4465 371.567,48.833 371.167,49.1289 C370.766,49.4248 370.293,49.6395 369.749,49.7731 C369.205,49.9068 368.637,49.9736 368.046,49.9736 L366.986,49.9736 L366.986,51.8634 Z " fill="#000000" fill-opacity="1.00" />				<path d="M567.711,51.3017 L577.159,51.3017 L577.159,49.412 L567.711,49.412 L567.711,42.5114 L577.875,42.5114 L577.875,40.6216 L565.649,40.6216 L565.649,60.8938 L567.711,60.8938 L567.711,51.3017 Z M581.111,40.6216 L578.82,40.6216 L584.804,60.8938 L587.21,60.8938 L592.306,43.5422 L592.364,43.5422 L597.46,60.8938 L599.865,60.8938 L605.85,40.6216 L603.559,40.6216 L598.749,57.9733 L598.692,57.9733 L593.595,40.6216 L591.132,40.6216 L586.036,57.9733 L585.978,57.9733 L581.111,40.6216 Z M615.7,54.1937 L608.656,54.1937 L615.642,42.6832 L615.7,42.6832 L615.7,54.1937 Z M617.761,40.6216 L615.127,40.6216 L606.938,53.7356 L606.938,56.0835 L615.7,56.0835 L615.7,60.8938 L617.761,60.8938 L617.761,56.0835 L620.682,56.0835 L620.682,54.1937 L617.761,54.1937 L617.761,40.6216 Z " fill="#000000" fill-opacity="1.00" />				<path d="M-17.1807,54.0005 L-7.73173,54.0005 L-7.73173,52.1107 L-17.1807,52.1107 L-17.1807,45.2101 L-7.01591,45.2101 L-7.01591,43.3204 L-19.2422,43.3204 L-19.2422,63.5926 L-17.1807,63.5926 L-17.1807,54.0005 Z M-3.78037,43.3204 L-6.07102,43.3204 L-0.0867014,63.5926 L2.31848,63.5926 L7.41517,46.2409 L7.47243,46.2409 L12.5691,63.5926 L14.9743,63.5926 L20.9586,43.3204 L18.668,43.3204 L13.8576,60.672 L13.8003,60.672 L8.70365,43.3204 L6.24121,43.3204 L1.14452,60.672 L1.08725,60.672 L-3.78037,43.3204 Z M26.7998,53.9146 L27.6874,53.9146 C28.3555,53.9146 28.9997,53.9862 29.6201,54.1293 C30.2405,54.2725 30.7893,54.5063 31.2665,54.8309 C31.7437,55.1554 32.1255,55.5801 32.4118,56.105 C32.6982,56.63 32.8413,57.2742 32.8413,58.0378 C32.8413,58.6295 32.7316,59.1735 32.5121,59.6698 C32.2925,60.1662 31.9871,60.5909 31.5958,60.944 C31.2045,61.2972 30.7511,61.5692 30.2357,61.7601 C29.7203,61.9509 29.1763,62.0464 28.6036,62.0464 C27.382,62.0464 26.4323,61.8126 25.7547,61.3449 C25.077,60.8772 24.5664,60.1566 24.2228,59.1831 L22.0467,59.8416 C22.6002,61.2733 23.4306,62.3136 24.5377,62.9626 C25.6449,63.6117 26.9429,63.9362 28.4318,63.9362 C29.3099,63.9362 30.1403,63.8073 30.9229,63.5496 C31.7056,63.2919 32.3928,62.9149 32.9845,62.4186 C33.5763,61.9223 34.0439,61.3115 34.3875,60.5861 C34.7311,59.8607 34.9029,59.0304 34.9029,58.095 C34.9029,57.4651 34.8075,56.8638 34.6166,56.2911 C34.4257,55.7185 34.1585,55.2031 33.8149,54.745 C33.4713,54.2868 33.0609,53.9003 32.5836,53.5853 C32.1064,53.2704 31.5815,53.0556 31.0088,52.9411 L30.9229,52.8838 C31.3811,52.7311 31.8201,52.5068 32.24,52.2109 C32.66,51.9151 33.0275,51.5667 33.3424,51.1658 C33.6574,50.765 33.9055,50.3164 34.0869,49.8201 C34.2682,49.3238 34.3589,48.7988 34.3589,48.2452 C34.3589,47.4053 34.2014,46.6561 33.8865,45.9975 C33.5715,45.339 33.1468,44.7854 32.6123,44.3368 C32.0778,43.8882 31.4574,43.5494 30.7511,43.3204 C30.0448,43.0913 29.2908,42.9768 28.4891,42.9768 C27.2483,42.9768 26.1555,43.2392 25.2106,43.7642 C24.2657,44.2891 23.4879,45.0956 22.877,46.1837 L24.6809,47.0999 C25.1009,46.3745 25.6354,45.821 26.2844,45.4392 C26.9334,45.0574 27.6874,44.8665 28.5464,44.8665 C29.7299,44.8665 30.6509,45.1672 31.3095,45.7685 C31.968,46.3698 32.2973,47.2145 32.2973,48.3025 C32.2973,48.9706 32.178,49.5433 31.9394,50.0205 C31.7008,50.4977 31.3811,50.8843 30.9802,51.1801 C30.5793,51.476 30.1069,51.6908 29.5629,51.8244 C29.0188,51.958 28.4509,52.0248 27.8592,52.0248 L26.7998,52.0248 L26.7998,53.9146 Z " fill="#000000" fill-opacity="1.00" />				<path d="M-362.408,54.1723 L-352.959,54.1723 L-352.959,52.2825 L-362.408,52.2825 L-362.408,45.3819 L-352.243,45.3819 L-352.243,43.4922 L-364.47,43.4922 L-364.47,63.7644 L-362.408,63.7644 L-362.408,54.1723 Z M-349.008,43.4922 L-351.298,43.4922 L-345.314,63.7644 L-342.909,63.7644 L-337.812,46.4127 L-337.755,46.4127 L-332.658,63.7644 L-330.253,63.7644 L-324.269,43.4922 L-326.559,43.4922 L-331.37,60.8438 L-331.427,60.8438 L-336.524,43.4922 L-338.986,43.4922 L-344.083,60.8438 L-344.14,60.8438 L-349.008,43.4922 Z M-310.009,61.8746 L-320.661,61.8746 L-314.276,55.5467 C-313.76,55.0504 -313.259,54.5445 -312.773,54.0291 C-312.286,53.5137 -311.852,52.9697 -311.47,52.397 C-311.088,51.8244 -310.778,51.2135 -310.539,50.5645 C-310.301,49.9155 -310.181,49.1997 -310.181,48.417 C-310.181,47.539 -310.348,46.7706 -310.682,46.1121 C-311.016,45.4535 -311.465,44.9047 -312.028,44.4657 C-312.591,44.0266 -313.24,43.6974 -313.975,43.4778 C-314.71,43.2583 -315.488,43.1486 -316.309,43.1486 C-317.874,43.1486 -319.205,43.5781 -320.303,44.437 C-321.401,45.296 -322.093,46.4795 -322.379,47.9875 L-320.203,48.2166 C-319.993,47.2431 -319.525,46.47 -318.8,45.8973 C-318.074,45.3247 -317.196,45.0383 -316.166,45.0383 C-315.631,45.0383 -315.125,45.1195 -314.648,45.2817 C-314.171,45.444 -313.751,45.6778 -313.388,45.9832 C-313.025,46.2887 -312.744,46.6609 -312.544,47.0999 C-312.343,47.539 -312.243,48.0353 -312.243,48.5888 C-312.243,49.047 -312.319,49.486 -312.472,49.906 C-312.625,50.3259 -312.825,50.7268 -313.073,51.1086 C-313.321,51.4903 -313.598,51.853 -313.904,52.1966 C-314.209,52.5402 -314.514,52.8647 -314.82,53.1701 L-322.894,61.3878 L-322.894,63.7644 L-310.009,63.7644 L-310.009,61.8746 Z " fill="#000000" fill-opacity="1.00" />				<path d="M-668.13,54.0005 L-658.681,54.0005 L-658.681,52.1107 L-668.13,52.1107 L-668.13,45.2101 L-657.965,45.2101 L-657.965,43.3204 L-670.192,43.3204 L-670.192,63.5926 L-668.13,63.5926 L-668.13,54.0005 Z M-654.73,43.3204 L-657.02,43.3204 L-651.036,63.5926 L-648.631,63.5926 L-643.534,46.2409 L-643.477,46.2409 L-638.38,63.5926 L-635.975,63.5926 L-629.991,43.3204 L-632.281,43.3204 L-637.092,60.672 L-637.149,60.672 L-642.246,43.3204 L-644.708,43.3204 L-649.805,60.672 L-649.862,60.672 L-654.73,43.3204 Z M-620.027,43.3204 L-621.859,43.3204 L-627.013,47.5581 L-625.725,49.1042 L-622.088,45.8973 L-622.088,63.5926 L-620.027,63.5926 L-620.027,43.3204 Z " fill="#000000" fill-opacity="1.00" />			</g>		</g>	</svg>